<svg width="54" height="55" viewBox="0 0 54 55" fill="none" xmlns="http://www.w3.org/2000/svg">
    <g clip-path="url(#prizmCoinWrapper)">
        <path d="M53.1515 34.071C49.5454 48.5354 34.8953 57.3382 20.4292 53.7312C5.96908 50.1252 -2.83369 35.4741 0.773942 21.0109C4.3784 6.54486 19.0285 -2.25856 33.4902 1.34748C47.9553 4.95353 56.7575 19.6062 53.1511 34.0712L53.1513 34.071H53.1515Z" fill="#F7931A"/>
        <path d="M38.9053 23.6533C39.4427 20.0601 36.7072 18.1287 32.9665 16.8403L34.18 11.9731L31.2172 11.2348L30.0359 15.9738C29.257 15.7796 28.4571 15.5965 27.6621 15.4151L28.852 10.6448L25.891 9.90649L24.6769 14.7721C24.0323 14.6253 23.3992 14.4803 22.785 14.3275L22.7885 14.3122L18.7027 13.2919L17.9145 16.4563C17.9145 16.4563 20.1127 16.9602 20.0664 16.9912C21.2661 17.2907 21.4831 18.0849 21.4471 18.7144L20.0648 24.2593C20.1474 24.2803 20.2546 24.3106 20.3728 24.3581C20.274 24.3336 20.1688 24.3068 20.0596 24.2807L18.1221 32.0482C17.9755 32.4127 17.6033 32.9598 16.7645 32.752C16.7942 32.7951 14.6111 32.2146 14.6111 32.2146L13.1401 35.6061L16.9957 36.5673C17.713 36.7471 18.4159 36.9353 19.1081 37.1123L17.8821 42.0353L20.8415 42.7736L22.0556 37.9028C22.8641 38.1223 23.6487 38.3247 24.4167 38.5156L23.2067 43.3634L26.1696 44.1016L27.3955 39.1879C32.4477 40.144 36.2466 39.7585 37.8456 35.1888C39.134 31.5096 37.7814 29.3875 35.1235 28.0036C37.0594 27.5572 38.5176 26.2839 38.9064 23.6536L38.9055 23.653L38.9053 23.6533ZM32.136 33.1456C31.2204 36.8247 25.0258 34.8359 23.0174 34.3372L24.6444 27.815C26.6526 28.3164 33.0929 29.3086 32.1361 33.1456H32.136ZM33.0523 23.5999C32.217 26.9465 27.0612 25.2463 25.3887 24.8294L26.8638 18.9142C28.5363 19.3311 33.9224 20.1092 33.0526 23.5999H33.0523Z" fill="white"/>
    </g>
    <defs>
        <clipPath id="prizmCoinWrapper">
            <rect width="54" height="54" fill="white" transform="translate(0 0.5)"/>
        </clipPath>
    </defs>
</svg>
