<svg width="54" height="55" viewBox="0 0 54 55" fill="none" xmlns="http://www.w3.org/2000/svg">
    <g clip-path="url(#ethCoinWrapper)">
        <path d="M27.0803 0.792633V0.819234C27.1069 0.952238 27.1069 1.11184 27.1069 1.27145V20.4508C27.0803 20.5572 27.0005 20.5838 26.9207 20.637C26.3621 20.903 25.83 21.1424 25.2714 21.3818C24.5 21.7276 23.702 22.1 22.9305 22.4458L20.1374 23.7227C19.366 24.0685 18.5946 24.4143 17.8497 24.7601C16.9453 25.1857 16.0143 25.5848 15.1098 26.0104C14.3384 26.3562 13.567 26.7286 12.769 27.0744C12.1305 27.367 11.4921 27.633 10.8803 27.9256C10.8271 27.9522 10.7739 27.9788 10.7207 27.9788C10.6941 27.9788 10.6941 27.9788 10.6675 27.9522L11.3857 26.7552C12.769 24.4675 14.1256 22.2064 15.5089 19.9187C16.9719 17.4715 18.4616 15.0242 19.9246 12.5769C21.2813 10.3158 22.6645 8.0547 24.0212 5.79362C25.0054 4.14436 26.0162 2.4951 27.0005 0.845835C27.0271 0.792633 27.0537 0.766032 27.0537 0.71283H27.0803C27.0537 0.739431 27.0803 0.766032 27.0803 0.792633Z" fill="#8A92B2"/>
        <path d="M43.4126 27.9522L43.4392 27.9788L39.5288 30.2931L27.2392 37.5552C27.186 37.5818 27.1328 37.6084 27.1062 37.635C27.0264 37.635 27.0264 37.5552 27.0264 37.5286V37.2892V20.8498C27.0264 20.77 27.0264 20.6636 27.053 20.5838C27.0796 20.4774 27.1594 20.504 27.2392 20.5306C27.585 20.6902 27.9574 20.8498 28.3032 21.0094C29.3407 21.4882 30.3781 21.967 31.4155 22.4192C32.32 22.8183 33.1978 23.2439 34.1022 23.6429C35.0067 24.0419 35.9111 24.4675 36.8155 24.8665C37.587 25.2123 38.385 25.5848 39.1564 25.9306C39.9278 26.2764 40.7259 26.6488 41.4973 26.9946C42.1091 27.2606 42.721 27.5532 43.3328 27.8192C43.3328 27.899 43.3594 27.9256 43.4126 27.9522Z" fill="#454A75"/>
        <path d="M27.0793 54.1542C27.0793 54.1808 27.0527 54.2074 27.0527 54.234H27.0261C27.0261 54.1808 26.9729 54.1542 26.9463 54.101C25.297 51.7867 23.6478 49.4458 21.9985 47.1315C20.3227 44.7641 18.6202 42.37 16.9443 40.0025C15.3217 37.7148 13.6724 35.4005 12.0498 33.1128C11.6241 32.501 11.1985 31.9158 10.7729 31.304C10.7463 31.2508 10.7197 31.2242 10.6665 31.1443C10.7463 31.1443 10.7995 31.1976 10.8261 31.2242C13.1404 32.5808 15.4281 33.9375 17.7424 35.2941C20.4025 36.8636 23.036 38.433 25.6961 40.0025L27.0527 40.8005C27.1059 40.8537 27.1059 40.9069 27.1059 40.9601V53.7818C27.1059 53.9148 27.1059 54.0478 27.0793 54.1542Z" fill="#8A92B2"/>
        <path d="M10.6401 28.0054V27.9788C11.4914 27.6064 12.316 27.2074 13.1672 26.835C14.2579 26.3296 15.3485 25.8508 16.4392 25.3453C17.2638 24.9729 18.115 24.5739 18.9396 24.2015C20.1633 23.6429 21.3603 23.1109 22.584 22.5522C23.4086 22.1798 24.2332 21.8074 25.0845 21.4084C25.6697 21.1424 26.2815 20.8764 26.8667 20.6104C26.9199 20.5838 26.9997 20.5572 27.0263 20.504C27.0529 20.504 27.0529 20.5306 27.0263 20.5572V37.4488C27.0263 37.5286 26.9997 37.6084 27.0529 37.6616C26.9997 37.7414 26.9465 37.6616 26.9199 37.635C26.6805 37.502 26.4411 37.369 26.2017 37.2094C21.0677 34.1769 15.9071 31.1178 10.7731 28.0852C10.7465 28.0586 10.6933 28.032 10.6401 28.0054Z" fill="#62688F"/>
        <path d="M43.3591 31.1443H43.3857C43.3857 31.1976 43.3325 31.2508 43.3059 31.304C38.4114 38.1936 33.5168 45.1099 28.6222 51.9995C28.1168 52.7178 27.5848 53.436 27.0793 54.1542C27.0527 54.1276 27.0527 54.101 27.0527 54.0744V53.9148V41.0133V40.7739C28.17 40.1089 29.2606 39.4705 30.3779 38.8054C34.6872 36.2517 38.9966 33.7246 43.2793 31.171C43.3059 31.1976 43.3325 31.1709 43.3591 31.1443Z" fill="#62688F"/>
        <path d="M27.0532 20.5572V20.504V20.3444V1.03208C27.0532 0.95228 27.0266 0.899078 27.0798 0.819275C32.4798 9.78381 37.8798 18.7217 43.2532 27.6863C43.3064 27.7661 43.3862 27.8725 43.4128 27.9789C43.0404 27.8459 42.6946 27.6597 42.3488 27.5001C41.9232 27.3139 41.4709 27.101 41.0453 26.9148C40.7793 26.7818 40.4867 26.6754 40.2207 26.5424C39.7685 26.3296 39.3163 26.1434 38.864 25.9306C38.598 25.8242 38.332 25.6912 38.066 25.5582L36.3103 24.7602C36.0177 24.6272 35.7251 24.4942 35.4059 24.3611L34.1291 23.8025C33.8631 23.6961 33.597 23.5631 33.331 23.4301L31.5754 22.6321C31.2828 22.4991 30.9901 22.3661 30.6709 22.2331L29.3941 21.6744C29.1015 21.5414 28.8355 21.4084 28.5429 21.2754C28.0374 21.036 27.532 20.7966 27 20.5838C27.0798 20.5572 27.0532 20.5572 27.0532 20.5572Z" fill="#62688F"/>
    </g>
    <defs>
        <clipPath id="ethCoinWrapper">
            <rect width="54" height="54" fill="white" transform="translate(0 0.5)"/>
        </clipPath>
    </defs>
</svg>