<svg width="54" height="55" viewBox="0 0 54 55" fill="none" xmlns="http://www.w3.org/2000/svg">
    <g clip-path="url(#golosCoinWrapper)">
        <path d="M24.3433 21.2088C28.338 19.5228 30.9258 15.5987 30.9024 11.2629C30.9393 5.33215 26.1629 0.5 20.3281 0.5C14.4592 0.5 9.69053 5.33215 9.69053 11.2629C9.68669 14.3583 11.012 17.3064 13.3297 19.3582L7.74561 23.0903C7.74561 23.0903 18.9464 24.065 24.3433 21.2088Z" fill="url(#golosCoinGradient)"/>
        <path d="M47.0311 32.9758C41.6977 31.0618 34.2599 34.7644 34.2599 34.7644C34.2599 34.7644 40.0019 27.076 39.8765 15.7174C39.8146 7.40235 36.8655 4.7039 34.6049 2.69708C34.7942 3.83747 34.8889 4.99153 34.8881 6.14751C34.8881 18.1962 27.4209 26.2915 15.4032 26.2915C10.4133 26.2915 5.83331 26.2606 2.16162 23.4677C2.22506 23.6565 2.75732 25.9434 4.89102 28.3308C6.00271 29.5628 7.31928 30.593 8.78242 31.3759C14.1793 34.2925 18.3214 34.6391 18.7283 34.67C18.7608 34.701 18.7608 34.7644 18.7918 34.7954C18.7918 40.788 14.5863 49.3537 8.6246 49.3537C7.73917 49.3465 6.85717 49.2427 5.99423 49.0442C4.62871 48.7798 3.34006 48.2119 2.22351 47.3825C2.22351 47.3825 3.03893 53.6257 9.75411 54.2539C17.1269 54.944 20.5154 53.3441 27.8263 48.888C35.6401 44.1193 41.5692 39.0674 46.1198 40.3222C49.5718 41.263 50.1427 46.7543 50.1427 46.7543C50.1427 46.7543 51.1778 44.5881 51.4919 42.6756C51.7983 40.6626 52.3631 34.8897 47.0311 32.9758Z" fill="url(#golosCoinGradient2)"/>
        <path d="M20.0758 3.98292C22.2238 3.98526 24.2638 4.92501 25.6615 6.55604L26.5078 5.83346C23.6737 2.54416 18.815 1.92214 15.2437 4.3914L15.8718 5.29656C17.1078 4.44315 18.5738 3.98507 20.0758 3.98292Z" fill="white"/>
    </g>
    <defs>
        <linearGradient id="golosCoinGradient" x1="7.74561" y1="11.8756" x2="30.9024" y2="11.8756" gradientUnits="userSpaceOnUse">
            <stop stop-color="#FF3F3F"/>
            <stop offset="1" stop-color="#EB0000"/>
        </linearGradient>
        <linearGradient id="golosCoinGradient2" x1="2.16007" y1="28.549" x2="51.673" y2="28.549" gradientUnits="userSpaceOnUse">
            <stop stop-color="#2482C5"/>
            <stop offset="1" stop-color="#285FAC"/>
        </linearGradient>
        <clipPath id="golosCoinWrapper">
            <rect width="54" height="54" fill="white" transform="translate(0 0.5)"/>
        </clipPath>
    </defs>
</svg>