<svg width="54" height="55" viewBox="0 0 54 55" fill="none" xmlns="http://www.w3.org/2000/svg">
    <g clip-path="url(#liteCoinWrapper)">
        <path d="M27.0001 51.5777C40.2978 51.5777 51.0778 40.7978 51.0778 27.5C51.0778 14.2023 40.2978 3.4223 27.0001 3.4223C13.7023 3.4223 2.92236 14.2023 2.92236 27.5C2.92236 40.7978 13.7023 51.5777 27.0001 51.5777Z" fill="white"/>
        <path d="M27 0.5C21.6599 0.5 16.4397 2.08352 11.9996 5.05032C7.55949 8.01712 4.09883 12.2339 2.05526 17.1675C0.0116986 22.1012 -0.522991 27.53 0.51881 32.7674C1.56061 38.0049 4.13211 42.8159 7.90813 46.5919C11.6841 50.3679 16.4951 52.9394 21.7326 53.9812C26.9701 55.023 32.3989 54.4883 37.3325 52.4447C42.2661 50.4012 46.4829 46.9405 49.4497 42.5004C52.4165 38.0603 54 32.8401 54 27.5V27.5C54.0103 23.9646 53.3242 20.4618 51.9808 17.1916C50.6374 13.9214 48.663 10.9478 46.1704 8.44058C43.6778 5.93339 40.7157 3.94172 37.4534 2.57927C34.191 1.21682 30.6923 0.510287 27.1569 0.5H27ZM27.4576 28.4153L24.6465 37.8947H39.6828C39.7824 37.8912 39.8817 37.9074 39.9751 37.9423C40.0684 37.9772 40.154 38.0302 40.2268 38.0982C40.2997 38.1662 40.3584 38.2479 40.3997 38.3386C40.441 38.4293 40.4639 38.5273 40.4673 38.6269V38.8753L39.1598 43.3862C39.1022 43.5995 38.9737 43.7869 38.7955 43.9176C38.6173 44.0483 38.4 44.1145 38.1792 44.1053H15.1671L19.0242 30.9649L14.7095 32.2724L15.6901 29.2651L20.0049 27.9576L25.431 9.52179C25.4907 9.30967 25.6197 9.12363 25.7974 8.9933C25.9752 8.86298 26.1914 8.79587 26.4116 8.80266H32.23C32.3296 8.79917 32.429 8.81534 32.5223 8.85026C32.6156 8.88518 32.7012 8.93815 32.7741 9.00615C32.8469 9.07415 32.9057 9.15585 32.9469 9.24657C32.9882 9.33729 33.0112 9.43526 33.0145 9.53487V9.78329L28.4383 25.3426L32.753 24.0351L31.8378 27.1731L27.4576 28.4153Z" fill="#345D9D"/>
    </g>
    <defs>
        <clipPath id="liteCoinWrapper">
            <rect width="54" height="54" fill="white" transform="translate(0 0.5)"/>
        </clipPath>
    </defs>
</svg>
