<svg xmlns="http://www.w3.org/2000/svg" width="334.14" height="331.28" viewBox="0 0 334.14 331.28">
    <g fill="#175273">
        <path d="M51.42,31.5A59.37,59.37,0,0,1,162.87,53.6c.17,3.84.22,7.7,0,11.54a66.83,66.83,0,0,1-5,18.49,111,111,0,0,1-6,10.11,59.73,59.73,0,0,1-24.9,20c-5.63,2.47-11.78,3.25-17.65,5,.27,37.73,0,75.46.11,113.19,5.49,1.31,11.1,2.48,16.17,5.09,7.07,3.37,13,8.74,17.87,14.82,1.75,2.88,3.47,5.79,5.49,8.5.94-.08,1.88-.17,2.82-.28-.82.66-1.62,1.32-2.43,2,1.4,4.32,3,8.63,3.22,13.21.13,3.68.19,7.37.38,11.05,12.95.18,25.9-.06,38.85.09,3.6,0,7.19-.15,10.77-.45.57-4.71.86-9.48,2.22-14a28.87,28.87,0,0,1,21.17-18.7c5.08-1.51,10.38-.51,15.45.5a49.73,49.73,0,0,1,9.94,6.05c6,5.26,9.42,13.13,10,21a30.21,30.21,0,0,1-9.49,22.06,29.29,29.29,0,0,1-42.56-3.44c-3.34-3.66-4.26-8.64-6.24-13-16.71.55-33.48-.31-50.16.48a50,50,0,0,1-17.68,32.35c-5.68,4.94-12.82,7.54-19.52,10.73a52.22,52.22,0,0,1-24.2-.17c-4.59-2.27-9.44-4-13.78-6.77a49.19,49.19,0,0,1-23.24-41.17c-.48-15.53,7.31-30.82,19.7-40.07a64.08,64.08,0,0,1,10-5.94,59.25,59.25,0,0,1,14.23-3.68c3.41-.19,6.83-.27,10.24-.51.88-7.24.25-14.53.35-21.8.09-22.67-.11-45.34.1-68,0-7.81.33-15.66-.78-23.42-3.34-.13-6.69-.06-10-.14a60.77,60.77,0,0,1-17.93-4.86A66.39,66.39,0,0,1,69,107.09,58.8,58.8,0,0,1,46.12,72.64C42.29,58.91,45,44,51.42,31.5M97.18,12.3c-16.76,2-31.68,14-37.66,29.73a46.45,46.45,0,0,0,1.74,38.3c9.13,18.92,31.79,30.14,52.34,25.31a48.08,48.08,0,0,0,34.55-29.45c2.92-8.55,4.75-17.94,2-26.79-3.6-19.71-21.47-35.65-41.39-37.3a25.94,25.94,0,0,0-11.56.2m.87,231.63a40,40,0,0,0-19.17,9A38.16,38.16,0,0,0,66.05,282.9c.6,17.88,15.7,34.3,33.71,35.48a37.17,37.17,0,0,0,28.1-8.43,38.24,38.24,0,0,0,13.28-34.07c-1.85-9.58-6.81-18.8-14.75-24.65a37.45,37.45,0,0,0-28.34-7.3m128.09,21.31c-5.62,2.25-10.39,7.38-11,13.55-.25,3.47-.36,7.21,1.42,10.34,2.72,5.77,9,9.5,15.22,9.92,6.62-.22,13.28-4.1,16-10.25,3.62-7.24,1-16.76-5.67-21.3C237.65,264,231.4,263.54,226.14,265.24Z"/><path d="m218.26 28.59c13-6.25 29.92-2.6 39.17 8.54 10.57 11.87 10.94 31.7.17 43.53-1.34 1.66-3.29 3.07-3.52 5.35-4.17.2-7.35 3.4-11.11 4.85-8.61 2.36-18.27 2.24-26.24-2.1-9.31-4.55-15.51-13.85-17.73-23.76a65 65 0 0 1 0 -11.28c1.77-10.83 9-20.79 19.24-25.13m7.88 9.56a22 22 0 0 0 -15 15.35c-1.84 5.33-.6 11.17 1.95 16a23.7 23.7 0 0 0 18.68 11.57c9.57-.18 18.85-6.86 21.34-16.25 2.91-9.3-1.89-20.29-10.52-24.82-4.96-2.66-11.01-3.9-16.43-1.85"/><path d="m1.85 157.52c4.31-14.37 18.8-25.25 33.93-24.31 5.76-.35 11.35 1.34 16.49 3.8a75.76 75.76 0 0 1 9.08 7.08c.43-.69.85-1.38 1.25-2.08-.15.66-.46 2-.62 2.65 4.72 6.44 8.79 13.91 8.55 22.13.75 9.77-3.4 19.46-10.18 26.39a48.36 48.36 0 0 1 -9.81 6.91 35.23 35.23 0 0 1 -24.81 1.91c-18.49-4.63-30.53-26.44-23.88-44.48m27.34-12.11c-8.19 2.42-15.19 9.32-16.74 17.83-.61 5.07-.69 10.54 1.76 15.18 3.86 8 12.57 13.72 21.57 13.13 14.7.65 27.08-15.77 22.27-29.7-3.15-11.92-16.92-20.3-28.86-16.44"/><path d="M284.52,134.3c11.21-4.33,24.2-1.68,33.86,5.1,13.93,9.69,19.69,29.43,12.94,45-4.94,12.25-16.68,21.75-29.92,23.18a38.69,38.69,0,0,1-18.77-2,43.87,43.87,0,0,1-10.86-6.37c-2-1.72-3.86-3.5-5.66-5.38a45.71,45.71,0,0,1-5.77-11.65c-3.33-8.4-2.23-17.61.1-26.09a43.13,43.13,0,0,1,6.22-10,55.49,55.49,0,0,1,5.46-5.49,36.68,36.68,0,0,1,12.4-6.39m5.67,10.24c-11.62,2.84-20.95,14.13-20.14,26.31-.27,14,12.87,26.18,26.72,25.58,13.18-.05,24.92-11.49,25.68-24.58A26.47,26.47,0,0,0,307,146.35C301.88,143.56,295.79,143.86,290.19,144.54Z"/></g><g fill="#2f9bce"><path d="m162.87 53.6c6.62-.52 13.26-.15 19.89-.25 5.42.11 10.87-.39 16.26.37a65 65 0 0 0 -.02 11.28c-12 .46-24 .18-36.06.17.15-3.87.06-7.73-.07-11.57"/><path d="m157.86 83.63c36.32 20.76 72.39 42 108.8 62.55a43.13 43.13 0 0 0 -6.22 10c-14.33-7.9-28.46-16.17-42.61-24.39-22.09-12.52-44-25.33-66-38a111 111 0 0 0 6.03 -10.16"/><path d="M243,90.86c3.76-1.45,6.94-4.65,11.11-4.85,9.26,15,17.72,30.59,26.7,45.8.67,1.52,2.3,2,3.74,2.49a36.68,36.68,0,0,0-12.4,6.39c-7.4-13.55-15.47-26.71-23-40.16A82.88,82.88,0,0,0,243,90.86Z"/><path d="M69 107.09a66.39 66.39 0 0 0 11.32 6.32 31.45 31.45 0 0 0 -5.86 8.1c-3.73 7-8 13.62-11.84 20.5-.4.7-.82 1.39-1.25 2.08A75.76 75.76 0 0 0 52.27 137C57.24 126.73 63.77 117.26 69 107.09"/><path d="m98.23 118.27c3.34.08 6.69 0 10 .14 1.11 7.76.78 15.61.78 23.42-.21 22.67 0 45.34-.1 68-.1 7.27.53 14.56-.35 21.8-3.41.24-6.83.32-10.24.51-.31-3.76-.35-7.54-.32-11.31.16-34.18-.26-68.38.23-102.56"/><path d="M260.34 182.25a45.71 45.71 0 0 0 5.77 11.65c-3 2.1-6.2 4-9.42 5.82-35 20.06-69.84 40.46-105 60.33-.94.11-1.88.2-2.82.28-2-2.71-3.74-5.62-5.49-8.5 6.67-4.93 14.09-8.7 21.26-12.83 30-17 59.7-34.62 89.78-51.53A13.59 13.59 0 0 0 260.34 182.25"/><path d="M50.54,200.09a48.36,48.36,0,0,0,9.81-6.91C63,199.84,67.2,205.71,70.61,212c4.4,8,9.35,15.7,13.51,23.84a64.08,64.08,0,0,0-10,5.94c-4.83-8.25-9.4-16.65-14.4-24.8C56.55,211.4,53,206,50.54,200.09Z"/><path d="M271.77,199.28a43.87,43.87,0,0,0,10.86,6.37c-10.84,17.79-21,36-31.33,54.1a49.73,49.73,0,0,0-9.94-6.05c4.78-9.77,10.76-18.89,16-28.42C262.16,216.62,268,208.46,271.77,199.28Z"/><path d="m202.88 275.22c.61-1.12 1.26-2.21 1.86-3.32-1.36 4.56-1.65 9.33-2.22 14-3.58.3-7.17.48-10.77.45-12.95-.15-25.9.09-38.85-.09-.19-3.68-.25-7.37-.38-11.05 16.79-.05 33.58.09 50.36.01"/>
    </g>
</svg>