<svg width="54" height="55" viewBox="0 0 54 55" fill="none" xmlns="http://www.w3.org/2000/svg">
    <g clip-path="url(#usdtCoinWrapper)">
        <path d="M53.952 27.4906C53.952 42.3285 41.9243 54.3563 27.0864 54.3563C12.249 54.3563 0.220703 42.3285 0.220703 27.4906C0.220703 12.653 12.249 0.624939 27.0864 0.624939C41.9243 0.624939 53.952 12.653 53.952 27.4906Z" fill="#1BA27A"/>
        <path d="M39.695 14.1722H14.2559V20.3137H23.9047V29.3406H30.0462V20.3137H39.695V14.1722Z" fill="white"/>
        <path d="M27.0341 30.3021C19.0524 30.3021 12.5812 29.0389 12.5812 27.4804C12.5812 25.9222 19.0521 24.6587 27.0341 24.6587C35.0159 24.6587 41.4868 25.9222 41.4868 27.4804C41.4868 29.0389 35.0159 30.3021 27.0341 30.3021ZM43.2623 27.9508C43.2623 25.9412 35.9968 24.3124 27.0341 24.3124C18.0718 24.3124 10.8057 25.9412 10.8057 27.9508C10.8057 29.7204 16.4397 31.1948 23.9054 31.5215V44.4799H30.0463V31.5266C37.5695 31.2101 43.2623 29.7296 43.2623 27.9508Z" fill="white"/>
    </g>
    <defs>
        <clipPath id="usdtCoinWrapper">
            <rect width="54" height="54" fill="white" transform="translate(0 0.5)"/>
        </clipPath>
    </defs>
</svg>