<svg width="1.7rem" height="1.6rem" viewBox="0 0 17 16" fill="var(--font-primary)" xmlns="http://www.w3.org/2000/svg">
    <path fill-rule="evenodd" clip-rule="evenodd" d="M13.3287 7.57069C13.3886 7.6289 13.4338 7.69599 13.4643 7.7676C13.4949 7.83918 13.5117 7.91768 13.5117 8C13.5117 8.08232 13.4949 8.16082 13.4643 8.2324C13.4629 8.23565 13.4615 8.23889 13.4601 8.24212M13.3287 8.42931L9.57866 12.0722C9.33458 12.3093 8.93885 12.3093 8.69478 12.0722C8.4507 11.8351 8.4507 11.4506 8.69478 11.2135L11.3778 8.60714H4.13672C3.79154 8.60714 3.51172 8.33532 3.51172 8C3.51172 7.66468 3.79154 7.39286 4.13672 7.39286L11.3778 7.39286L8.69478 4.78646C8.4507 4.54935 8.4507 4.16493 8.69478 3.92783C8.93885 3.69072 9.33458 3.69072 9.57866 3.92783L13.3287 7.57069" />
    <path d="M13.3287 7.57069L13.4595 8.23935C13.417 8.32369 13.3851 8.36151 13.3287 8.42931V7.57069Z" />
</svg>