<svg width="2.0rem" height="1.5rem" viewBox="0 0 20 15" fill="#B3ADBD" xmlns="http://www.w3.org/2000/svg">
    <path fill-rule="evenodd" clip-rule="evenodd" d="M7.00013 0.5C6.73491 0.5 6.48056 0.605357 6.29302 0.792893L1.29302 5.79289C1.2799 5.80602 1.26715 5.8195 1.25477 5.83333C0.844812 6.29169 0.618164 6.88506 0.618164 7.5C0.618164 8.11494 0.844812 8.70831 1.25477 9.16667C1.26715 9.1805 1.2799 9.19398 1.29302 9.20711L6.29302 14.2071C6.48056 14.3946 6.73491 14.5 7.00013 14.5H18.0001C18.5306 14.5 19.0393 14.2893 19.4143 13.9142C19.7894 13.5391 20.0001 13.0304 20.0001 12.5V2.5C20.0001 1.96957 19.7894 1.46086 19.4143 1.08579C19.0393 0.710714 18.5306 0.5 18.0001 0.5H7.00013ZM2.7322 7.18214L7.41434 2.5H18.0001V12.5H7.41434L2.7322 7.81786C2.65861 7.72851 2.61816 7.61618 2.61816 7.5C2.61816 7.38382 2.65861 7.27149 2.7322 7.18214ZM10.7072 4.79289C10.3167 4.40237 9.68354 4.40237 9.29302 4.79289C8.90249 5.18342 8.90249 5.81658 9.29302 6.20711L10.5859 7.5L9.29302 8.79289C8.90249 9.18342 8.90249 9.81658 9.29302 10.2071C9.68354 10.5976 10.3167 10.5976 10.7072 10.2071L12.0001 8.91421L13.293 10.2071C13.6835 10.5976 14.3167 10.5976 14.7072 10.2071C15.0978 9.81658 15.0978 9.18342 14.7072 8.79289L13.4143 7.5L14.7072 6.20711C15.0978 5.81658 15.0978 5.18342 14.7072 4.79289C14.3167 4.40237 13.6835 4.40237 13.293 4.79289L12.0001 6.08579L10.7072 4.79289Z" />
</svg>
