<svg width="2.4rem" height="2.4rem" viewBox="0 0 24 24" fill="var(--brand)" xmlns="http://www.w3.org/2000/svg">
    <path fill-rule="evenodd" clip-rule="evenodd" d="M17.5 6.5C17.5 5.94772 17.0523 5.5 16.5 5.5H10.5C9.43913 5.5 8.42172 5.92143 7.67157 6.67157C6.92143 7.42172 6.5 8.43913 6.5 9.5V10.5H5.5C4.70435 10.5 3.94129 10.8161 3.37868 11.3787C2.81607 11.9413 2.5 12.7043 2.5 13.5V16.5C2.5 17.0523 2.94772 17.5 3.5 17.5C4.05228 17.5 4.5 17.0523 4.5 16.5V13.5C4.5 13.2348 4.60536 12.9804 4.79289 12.7929C4.98043 12.6054 5.23478 12.5 5.5 12.5H6.5V13.5C6.5 14.5609 6.92143 15.5783 7.67157 16.3284C8.42172 17.0786 9.43913 17.5 10.5 17.5H16.5C17.0523 17.5 17.5 17.0523 17.5 16.5V15.5H20.5C21.0523 15.5 21.5 15.0523 21.5 14.5C21.5 13.9477 21.0523 13.5 20.5 13.5H17.5V9.5H20.5C21.0523 9.5 21.5 9.05228 21.5 8.5C21.5 7.94772 21.0523 7.5 20.5 7.5H17.5V6.5ZM8.5 11.5V13.5C8.5 14.0304 8.71071 14.5391 9.08579 14.9142C9.46086 15.2893 9.96957 15.5 10.5 15.5H15.5V14.5V8.5V7.5H10.5C9.96957 7.5 9.46086 7.71071 9.08579 8.08579C8.71071 8.46086 8.5 8.96957 8.5 9.5V11.5Z" />
</svg>