<svg width="2.4rem" height="2.5rem" viewBox="0 0 24 25" fill="none" xmlns="http://www.w3.org/2000/svg">
<path fill-rule="evenodd" clip-rule="evenodd" d="M11.2929 2.79289C11.6834 2.40237 12.3166 2.40237 12.7071 2.79289L21.7071 11.7929C21.9931 12.0789 22.0787 12.509 21.9239 12.8827C21.7691 13.2564 21.4045 13.5 21 13.5H20V19.5C20 20.2957 19.684 21.0587 19.1213 21.6213C18.5587 22.1839 17.7957 22.5 17 22.5H15H9.00003H7.00003C6.20438 22.5 5.44132 22.1839 4.87871 21.6213C4.3161 21.0587 4.00003 20.2957 4.00003 19.5V13.5H3.00003C2.59557 13.5 2.23093 13.2564 2.07615 12.8827C1.92137 12.509 2.00692 12.0789 2.29292 11.7929L11.2929 2.79289ZM10 20.5H14V15.5C14 15.2348 13.8947 14.9804 13.7071 14.7929C13.5196 14.6054 13.2652 14.5 13 14.5H11C10.7348 14.5 10.4805 14.6054 10.2929 14.7929C10.1054 14.9804 10 15.2348 10 15.5V20.5ZM16 20.5V15.5C16 14.7043 15.684 13.9413 15.1213 13.3787C14.5587 12.8161 13.7957 12.5 13 12.5H11C10.2044 12.5 9.44132 12.8161 8.87871 13.3787C8.3161 13.9413 8.00003 14.7043 8.00003 15.5V20.5H7.00003C6.73481 20.5 6.48046 20.3946 6.29292 20.2071C6.10539 20.0196 6.00003 19.7652 6.00003 19.5L6.00003 12.5C6.00003 12.0712 5.73013 11.7054 5.35094 11.5633L12 4.91421L18.6491 11.5633C18.2699 11.7054 18 12.0712 18 12.5V19.5C18 19.7652 17.8947 20.0196 17.7071 20.2071C17.5196 20.3946 17.2652 20.5 17 20.5H16Z" />
</svg>
