<svg width="1.6rem" height="1.7rem" viewBox="0 0 16 17" fill="var(--error)" xmlns="http://www.w3.org/2000/svg">
    <path fill-rule="evenodd" clip-rule="evenodd" d="M6.02859 3.37792L6.02426 3.38218L3.20426 6.20218L3.2 6.20651V10.1493L3.20426 10.1537L6.02426 12.9737L6.02859 12.9779H9.97141L9.97574 12.9737L12.7957 10.1537L12.8 10.1493V6.20651L12.7957 6.20218L9.97574 3.38218L9.97141 3.37792H6.02859ZM6.02 2.17792C5.85999 2.17792 5.69982 2.20529 5.54382 2.27463C5.39042 2.34281 5.27116 2.43823 5.17574 2.53365L2.35574 5.35365C2.26032 5.44907 2.16489 5.56834 2.09671 5.72173C2.02738 5.87774 2 6.03791 2 6.19792V10.1579C2 10.3179 2.02738 10.4781 2.09671 10.6341C2.16489 10.7875 2.26032 10.9068 2.35574 11.0022L5.17574 13.8222C5.27116 13.9176 5.39042 14.013 5.54382 14.0812C5.69982 14.1505 5.85999 14.1779 6.02 14.1779H9.98C10.14 14.1779 10.3002 14.1505 10.4562 14.0812C10.6096 14.013 10.7288 13.9176 10.8243 13.8222L13.6443 11.0022C13.7397 10.9068 13.8351 10.7875 13.9033 10.6341C13.9726 10.4781 14 10.3179 14 10.1579V6.19792C14 6.03791 13.9726 5.87774 13.9033 5.72174C13.8351 5.56834 13.7397 5.44907 13.6443 5.35365L10.8243 2.53365C10.7288 2.43823 10.6096 2.34281 10.4562 2.27463C10.3002 2.20529 10.14 2.17792 9.98 2.17792H6.02ZM8.6 5.77792V8.17792C8.6 8.50929 8.33137 8.77792 8 8.77792C7.66863 8.77792 7.4 8.50929 7.4 8.17792V5.77792C7.4 5.44655 7.66863 5.17792 8 5.17792C8.33137 5.17792 8.6 5.44655 8.6 5.77792ZM8 9.97792C7.66863 9.97792 7.4 10.2465 7.4 10.5779C7.4 10.9093 7.66863 11.1779 8 11.1779H8.006C8.33737 11.1779 8.606 10.9093 8.606 10.5779C8.606 10.2465 8.33737 9.97792 8.006 9.97792H8Z" />
</svg>