<svg width="1.2rem" height="1.2rem" viewBox="0 0 12 12" fill="var(--brand)" xmlns="http://www.w3.org/2000/svg">
    <path fill-rule="evenodd" clip-rule="evenodd" d="M6.00004 0.615662C6.1958 0.615662 6.37459 0.726514 6.46122 0.901609L7.92862 3.86724L11.2095 4.34151C11.4034 4.36953 11.5644 4.50493 11.6249 4.69073C11.6854 4.87654 11.6348 5.08048 11.4945 5.21675L9.11694 7.52508L9.67754 10.7847C9.71065 10.9772 9.63125 11.1718 9.47275 11.2865C9.31425 11.4013 9.10416 11.4163 8.93089 11.3252L6.00337 9.7865L3.06876 11.3254C2.89548 11.4163 2.68551 11.4012 2.52713 11.2864C2.36875 11.1716 2.28944 10.9771 2.32254 10.7847L2.88313 7.52508L0.505588 5.21675C0.36524 5.08048 0.314673 4.87654 0.375167 4.69073C0.435661 4.50493 0.596713 4.36953 0.790549 4.34151L4.07146 3.86724L5.53885 0.901609C5.62549 0.726514 5.80428 0.615662 6.00004 0.615662ZM6.00004 2.28771L4.87412 4.56322C4.79917 4.71468 4.65428 4.81964 4.4867 4.84387L1.97077 5.20755L3.7945 6.9782C3.91589 7.09605 3.97131 7.26597 3.94266 7.4325L3.51251 9.93363L5.76431 8.75278C5.91429 8.67413 6.09349 8.67421 6.2434 8.753L8.48736 9.93242L8.05741 7.4325C8.02877 7.26597 8.08419 7.09605 8.20558 6.9782L10.0293 5.20755L7.51338 4.84387C7.34579 4.81964 7.2009 4.71468 7.12596 4.56322L6.00004 2.28771Z" />
    <path d="M4.87412 4.56322L6.00004 2.28771L7.12596 4.56322C7.2009 4.71468 7.34579 4.81964 7.51338 4.84387L10.0293 5.20755L8.20558 6.9782C8.08419 7.09605 8.02877 7.26597 8.05741 7.4325L8.48736 9.93242L6.2434 8.753C6.09349 8.67421 5.91429 8.67413 5.76431 8.75278L3.51251 9.93363L3.94266 7.4325C3.97131 7.26597 3.91589 7.09605 3.7945 6.9782L1.97077 5.20755L4.4867 4.84387C4.65428 4.81964 4.79917 4.71468 4.87412 4.56322Z" />
</svg>