<svg width="2.2rem" height="2.2rem" viewBox="0 0 22 22" fill="#7C45D6" xmlns="http://www.w3.org/2000/svg">
    <path fill-rule="evenodd" clip-rule="evenodd" d="M12.333 1.66665C12.333 0.930267 11.7361 0.333313 10.9997 0.333313C10.2633 0.333313 9.66634 0.930267 9.66634 1.66665V9.66665H1.66634C0.929961 9.66665 0.333008 10.2636 0.333008 11C0.333008 11.7364 0.929961 12.3333 1.66634 12.3333H9.66634V20.3333C9.66634 21.0697 10.2633 21.6666 10.9997 21.6666C11.7361 21.6666 12.333 21.0697 12.333 20.3333V12.3333H20.333C21.0694 12.3333 21.6663 11.7364 21.6663 11C21.6663 10.2636 21.0694 9.66665 20.333 9.66665H12.333V1.66665Z" />
</svg>