<svg width="2.8rem" height="2.0rem" viewBox="0 0 28 20" fill="#FAC300" xmlns="http://www.w3.org/2000/svg">
    <path d="M26.9465 6.50396L21.6132 1.17063C21.4889 1.04631 21.3413 0.947693 21.1789 0.880413C21.0164 0.813133 20.8423 0.778503 20.6665 0.778503C20.3115 0.778503 19.9709 0.919554 19.7199 1.17063C19.4688 1.4217 19.3277 1.76222 19.3277 2.11729C19.3277 2.47236 19.4688 2.81289 19.7199 3.06396L22.7865 6.11729H7.33319C6.97957 6.11729 6.64043 6.25777 6.39039 6.50782C6.14034 6.75787 5.99986 7.097 5.99986 7.45063C5.99986 7.80425 6.14034 8.14339 6.39039 8.39343C6.64043 8.64348 6.97957 8.78396 7.33319 8.78396H25.9999C26.2631 8.78265 26.5201 8.70344 26.7383 8.55633C26.9566 8.40922 27.1265 8.20078 27.2265 7.95729C27.3286 7.71448 27.3565 7.44686 27.3067 7.18821C27.2569 6.92955 27.1315 6.69146 26.9465 6.50396ZM20.6665 11.4506H1.99986C1.73663 11.4519 1.47967 11.5311 1.26138 11.6783C1.04308 11.8254 0.873221 12.0338 0.773194 12.2773C0.671088 12.5201 0.643191 12.7877 0.693023 13.0464C0.742855 13.305 0.868184 13.5431 1.05319 13.7306L6.38653 19.064C6.51048 19.1889 6.65795 19.2881 6.82043 19.3558C6.9829 19.4235 7.15718 19.4584 7.33319 19.4584C7.50921 19.4584 7.68348 19.4235 7.84596 19.3558C8.00844 19.2881 8.15591 19.1889 8.27986 19.064C8.40483 18.94 8.50402 18.7925 8.57172 18.6301C8.63941 18.4676 8.67426 18.2933 8.67426 18.1173C8.67426 17.9413 8.63941 17.767 8.57172 17.6045C8.50402 17.442 8.40483 17.2946 8.27986 17.1706L5.21319 14.1173H20.6665C21.0201 14.1173 21.3593 13.9768 21.6093 13.7268C21.8594 13.4767 21.9999 13.1376 21.9999 12.784C21.9999 12.4303 21.8594 12.0912 21.6093 11.8412C21.3593 11.5911 21.0201 11.4506 20.6665 11.4506Z" />
</svg>