<svg width="2.0rem" height="2.2rem" viewBox="0 0 20 22" fill="#50A39A" xmlns="http://www.w3.org/2000/svg">
    <path fill-rule="evenodd" clip-rule="evenodd" d="M10.9431 21.2973C10.8153 21.4251 10.668 21.5216 10.5107 21.5866C10.3535 21.6518 10.1811 21.6878 10.0003 21.6878C9.81954 21.6878 9.64716 21.6518 9.48995 21.5866C9.48282 21.5837 9.47571 21.5807 9.46862 21.5776M9.05752 21.2973L1.05752 13.2973C0.536817 12.7766 0.536817 11.9324 1.05752 11.4117C1.57822 10.891 2.42244 10.891 2.94313 11.4117L8.66699 17.1355V1.6878C8.66699 0.951426 9.26395 0.354471 10.0003 0.354471C10.7367 0.354471 11.3337 0.951426 11.3337 1.6878V17.1355L17.0575 11.4117C17.5782 10.891 18.4224 10.891 18.9431 11.4117C19.4638 11.9324 19.4638 12.7766 18.9431 13.2973L10.9431 21.2973" />
    <path d="M10.9431 21.2973L9.4747 21.5764C9.28947 21.4857 9.20643 21.4176 9.05752 21.2973H10.9431Z" />
</svg>