<svg width="22" height="22" viewBox="0 0 16 16" fill="var(--error)" xmlns="http://www.w3.org/2000/svg">
    <path fill-rule="evenodd" clip-rule="evenodd" d="M2.34304 0.457541C1.82234 -0.0631582 0.978118 -0.0631582 0.457419 0.457541C-0.0632802 0.97824 -0.0632802 1.82246 0.457419 2.34316L6.1143 8.00004L0.457419 13.6569C-0.0632802 14.1776 -0.0632802 15.0218 0.457419 15.5425C0.978118 16.0632 1.82234 16.0632 2.34304 15.5425L7.99992 9.88566L13.6567 15.5425C14.1774 16.0632 15.0217 16.0632 15.5424 15.5425C16.0631 15.0218 16.0631 14.1776 15.5424 13.6569L9.88554 8.00004L15.5424 2.34321C16.0631 1.82251 16.0631 0.978295 15.5424 0.457596C15.0217 -0.0631028 14.1774 -0.0631032 13.6567 0.457596L7.99992 6.11442L2.34304 0.457541Z" />
</svg>