<svg width="2.0rem" height="2.2rem" viewBox="0 0 20 22" fill="#DE5E57" xmlns="http://www.w3.org/2000/svg">
    <path fill-rule="evenodd" clip-rule="evenodd" d="M10.9431 0.745017C10.8153 0.617181 10.668 0.52073 10.5107 0.455664C10.3535 0.390473 10.1811 0.354492 10.0003 0.354492C9.81954 0.354492 9.64716 0.390473 9.48995 0.455664C9.48282 0.458614 9.47571 0.461629 9.46862 0.464709M9.05752 0.745017L1.05752 8.74502C0.536817 9.26572 0.536817 10.1099 1.05752 10.6306C1.57822 11.1513 2.42244 11.1513 2.94313 10.6306L8.66699 4.90678V20.3545C8.66699 21.0909 9.26395 21.6878 10.0003 21.6878C10.7367 21.6878 11.3337 21.0909 11.3337 20.3545V4.90678L17.0575 10.6306C17.5782 11.1513 18.4224 11.1513 18.9431 10.6306C19.4638 10.1099 19.4638 9.26572 18.9431 8.74502L10.9431 0.745017" />
    <path d="M10.9431 0.745017L9.4747 0.465865C9.28947 0.556643 9.20643 0.624683 9.05752 0.745017H10.9431Z" />
</svg>