<svg width="22" height="22" viewBox="0 0 16 16" fill="var(--error)" xmlns="http://www.w3.org/2000/svg">
    <path fill-rule="evenodd" clip-rule="evenodd" d="M2.34328 0.457541C1.82258 -0.0631582 0.978362 -0.0631582 0.457663 0.457541C-0.0630361 0.97824 -0.0630361 1.82246 0.457663 2.34316L6.11454 8.00004L0.457663 13.6569C-0.0630361 14.1776 -0.0630361 15.0218 0.457663 15.5425C0.978362 16.0632 1.82258 16.0632 2.34328 15.5425L8.00016 9.88566L13.657 15.5425C14.1777 16.0632 15.0219 16.0632 15.5426 15.5425C16.0633 15.0218 16.0633 14.1776 15.5426 13.6569L9.88578 8.00004L15.5426 2.34321C16.0633 1.82251 16.0633 0.978295 15.5426 0.457596C15.0219 -0.0631028 14.1777 -0.0631032 13.657 0.457596L8.00016 6.11442L2.34328 0.457541Z" />
</svg>