<svg width="1.8rem" height="1.8rem" viewBox="0 0 12 12" fill="var(--error)" xmlns="http://www.w3.org/2000/svg">
    <path fill-rule="evenodd" clip-rule="evenodd" d="M0.343125 0.343156C0.73365 -0.0473688 1.36681 -0.0473685 1.75734 0.343156L5.99998 4.5858L10.2426 0.343156C10.6331 -0.0473688 11.2663 -0.0473685 11.6568 0.343156C12.0474 0.73368 12.0474 1.36684 11.6568 1.75737L7.41419 6.00001L11.6568 10.2427C12.0474 10.6332 12.0474 11.2663 11.6568 11.6569C11.2663 12.0474 10.6331 12.0474 10.2426 11.6569L5.99998 7.41422L1.75734 11.6569C1.36681 12.0474 0.73365 12.0474 0.343125 11.6569C-0.0473991 11.2663 -0.0473992 10.6332 0.343125 10.2427L4.58577 6.00001L0.343125 1.75737C-0.0473992 1.36685 -0.0473991 0.73368 0.343125 0.343156Z" />
</svg>