<svg width="18rem" height="4rem" viewBox="0 0 180 40" fill="none" xmlns="http://www.w3.org/2000/svg">
    <path fill-rule="evenodd" clip-rule="evenodd" d="M40.8582 26.643C42.5485 24.3499 43.7069 22.0213 44.3571 19.7872C46.2483 12.9314 41.2483 10.3191 36.4965 7.97872C31.5556 5.55555 25.7282 8.46336 23.1041 12.4232C26.8984 12.2695 30.5036 12.0567 33.7424 13.2979C39.0615 15.3073 42.3831 21.052 40.8582 26.643Z" fill="#7A3FDA"/>
    <path fill-rule="evenodd" clip-rule="evenodd" d="M6.00023 0.224586C9.60543 4.10166 16.1184 6.19385 21.9222 5.22459C19.239 4.81088 17.1586 2.68322 16.8631 0C19.5936 4.17258 27.6314 2.89598 32.2414 3.46336C42.4068 4.76359 46.674 11.7849 44.369 19.7754C45.7875 14.1371 40.7756 10.1537 35.4801 10.3073C31.0357 10.4374 27.4423 12.0095 23.1161 12.4232C15.1492 13.2033 6.55578 8.90071 6.00023 0.224586Z" fill="url(#paint0_linear_115_9847)"/>
    <path fill-rule="evenodd" clip-rule="evenodd" d="M37.5018 27.2459C37.2181 28.7825 36.6862 30.2837 35.9415 31.6194C33.6129 35.8274 29.3221 38.6643 24.5467 40C27.6909 37.5296 32.7145 29.4917 30.2677 25.4137C29.5112 24.1135 28.2583 23.487 26.7571 23.8062C25.2795 20.8511 39.1212 16.1111 37.5018 27.2459Z" fill="#7A3FDA"/>
    <path fill-rule="evenodd" clip-rule="evenodd" d="M37.5015 27.2459C38.1871 21.1229 31.6386 22.1158 27.797 23.4397C27.4424 23.5697 27.1115 23.6761 26.7568 23.7943C22.4424 25.2009 18.3526 25.8156 14.3337 22.6832C16.3195 23.0378 18.7781 22.6123 20.6221 21.6785C15.0429 21.312 10.102 17.0213 8.97907 11.5603C15.2438 19.5626 25.3384 13.9125 32.4661 16.643C36.9814 18.3688 38.2935 22.8605 37.5015 27.2459Z" fill="url(#paint1_linear_115_9847)"/>
    <path d="M69.2293 22.0839V27.0437H76.3677V30.6593C74.7454 32.6525 72.2886 33.7649 69.1366 33.7649C63.2034 33.7649 59.6805 29.315 59.6805 23.4281C59.6805 17.4949 63.2034 13.045 69.1366 13.045C72.7058 13.045 75.3943 14.6674 76.9703 17.2632L82.5791 14.482C79.8906 9.84662 75.1162 6.88 69.1366 6.88C59.8196 6.88 53.3765 14.1111 53.3765 23.4281C53.3765 32.7452 59.8196 39.9763 69.1366 39.9763C75.1162 39.9763 79.8906 37.056 82.5791 32.4207V22.0839H69.2293Z" fill="#ECE3FF"/>
    <path d="M96.895 16.9387C90.4519 16.9387 85.5848 21.9912 85.5848 28.4343C85.5848 34.8774 90.4519 39.9763 96.895 39.9763C103.338 39.9763 108.205 34.8774 108.205 28.4343C108.205 21.9912 103.338 16.9387 96.895 16.9387ZM96.895 34.3212C93.5576 34.3212 91.6107 31.7717 91.6107 28.4343C91.6107 25.0969 93.5576 22.5474 96.895 22.5474C100.232 22.5474 102.179 25.0969 102.179 28.4343C102.179 31.7717 100.232 34.3212 96.895 34.3212Z" fill="#ECE3FF"/>
    <path d="M111.228 4.84045V39.6055H117.393V4.84045H111.228Z" fill="#ECE3FF"/>
    <path d="M131.479 16.9387C125.036 16.9387 120.169 21.9912 120.169 28.4343C120.169 34.8774 125.036 39.9763 131.479 39.9763C137.922 39.9763 142.789 34.8774 142.789 28.4343C142.789 21.9912 137.922 16.9387 131.479 16.9387ZM131.479 34.3212C128.141 34.3212 126.195 31.7717 126.195 28.4343C126.195 25.0969 128.141 22.5474 131.479 22.5474C134.816 22.5474 136.763 25.0969 136.763 28.4343C136.763 31.7717 134.816 34.3212 131.479 34.3212Z" fill="#ECE3FF"/>
    <path d="M155.407 25.9312C151.884 24.8651 151.235 24.3089 151.189 23.4745C151.142 22.8719 151.745 21.7131 154.109 21.8985C155.824 22.0375 156.566 23.1037 156.797 23.8453L161.525 22.5011C161.201 20.4615 158.651 16.985 153.274 16.985C147.48 16.985 144.977 20.2298 144.838 23.3354C144.699 26.9974 146.831 28.6661 151.698 30.3811C154.804 31.4473 155.87 31.5863 155.917 32.8379C155.963 34.0431 154.109 34.4602 152.44 34.3675C150.864 34.2748 148.917 33.3478 148.454 32.1889L143.957 34.5993C144.699 37.3342 148.825 39.9299 153.506 39.9299C158.651 39.9299 162.267 37.1951 162.406 33.1623C162.545 29.7786 160.645 27.5536 155.407 25.9312Z" fill="#ECE3FF"/>
    <path d="M169.794 33.4549C168.024 33.4549 166.533 34.8989 166.533 36.7156C166.533 38.5323 168.024 39.9763 169.794 39.9763C171.61 39.9763 173.101 38.5323 173.101 36.7156C173.101 34.8989 171.61 33.4549 169.794 33.4549Z" fill="#ECE3FF"/>
    <defs>
        <linearGradient id="paint0_linear_115_9847" x1="44.9709" y1="9.88943" x2="-6.57414" y2="-2.15997" gradientUnits="userSpaceOnUse">
            <stop stop-color="#6DFFFF"/>
            <stop offset="0.4926" stop-color="#AD00FF"/>
            <stop offset="1" stop-color="#6E15FF"/>
        </linearGradient>
        <linearGradient id="paint1_linear_115_9847" x1="46.9492" y1="24.7582" x2="11.4648" y2="14.5131" gradientUnits="userSpaceOnUse">
            <stop stop-color="#6E15FF"/>
            <stop offset="0.4926" stop-color="#AD00FF"/>
            <stop offset="1" stop-color="#6DFFFF"/>
        </linearGradient>
    </defs>
</svg>