<svg width="180" height="40" viewBox="0 0 180 40" fill="none" xmlns="http://www.w3.org/2000/svg">
<path fill-rule="evenodd" clip-rule="evenodd" d="M40.8581 26.643C42.5484 24.3499 43.7068 22.0213 44.3569 19.7872C46.2482 12.9314 41.2482 10.3191 36.4964 7.97872C31.5555 5.55555 25.7281 8.46336 23.104 12.4232C26.8983 12.2695 30.5035 12.0567 33.7422 13.2979C39.0614 15.3073 42.3829 21.052 40.8581 26.643Z" fill="#7A3FDA"/>
<path fill-rule="evenodd" clip-rule="evenodd" d="M5.99998 0.224586C9.60519 4.10166 16.1182 6.19385 21.922 5.22459C19.2388 4.81088 17.1584 2.68322 16.8629 0C19.5934 4.17258 27.6312 2.89598 32.2411 3.46336C42.4066 4.76359 46.6737 11.7849 44.3688 19.7754C45.7872 14.1371 40.7754 10.1537 35.4799 10.3073C31.0354 10.4374 27.4421 12.0095 23.1158 12.4232C15.1489 13.2033 6.55554 8.90071 5.99998 0.224586Z" fill="url(#paint0_linear_16_10261)"/>
<path fill-rule="evenodd" clip-rule="evenodd" d="M37.5011 27.2459C37.2174 28.7825 36.6855 30.2837 35.9408 31.6194C33.6122 35.8274 29.3215 38.6643 24.546 40C27.6903 37.5296 32.7139 29.4917 30.2671 25.4137C29.5106 24.1135 28.2576 23.487 26.7564 23.8062C25.2789 20.8511 39.1205 16.1111 37.5011 27.2459Z" fill="#7A3FDA"/>
<path fill-rule="evenodd" clip-rule="evenodd" d="M37.501 27.2459C38.1866 21.1229 31.6382 22.1158 27.7965 23.4397C27.4419 23.5697 27.111 23.6761 26.7564 23.7943C22.4419 25.2009 18.3521 25.8156 14.3332 22.6832C16.319 23.0378 18.7776 22.6123 20.6216 21.6785C15.0424 21.312 10.1015 17.0213 8.97858 11.5603C15.2434 19.5626 25.3379 13.9125 32.4656 16.643C36.9809 18.3688 38.293 22.8605 37.501 27.2459Z" fill="url(#paint1_linear_16_10261)"/>
<path d="M69.2295 22.0839V27.0437H76.3679V30.6593C74.7455 32.6525 72.2888 33.7649 69.1368 33.7649C63.2035 33.7649 59.6807 29.315 59.6807 23.4281C59.6807 17.4949 63.2035 13.045 69.1368 13.045C72.706 13.045 75.3945 14.6674 76.9705 17.2632L82.5792 14.482C79.8907 9.84662 75.1163 6.88 69.1368 6.88C59.8197 6.88 53.3766 14.1111 53.3766 23.4281C53.3766 32.7452 59.8197 39.9763 69.1368 39.9763C75.1163 39.9763 79.8907 37.056 82.5792 32.4207V22.0839H69.2295Z" fill="#484848"/>
<path d="M96.8952 16.9387C90.452 16.9387 85.5849 21.9912 85.5849 28.4343C85.5849 34.8774 90.452 39.9763 96.8952 39.9763C103.338 39.9763 108.205 34.8774 108.205 28.4343C108.205 21.9912 103.338 16.9387 96.8952 16.9387ZM96.8952 34.3212C93.5577 34.3212 91.6109 31.7717 91.6109 28.4343C91.6109 25.0969 93.5577 22.5474 96.8952 22.5474C100.233 22.5474 102.179 25.0969 102.179 28.4343C102.179 31.7717 100.233 34.3212 96.8952 34.3212Z" fill="#484848"/>
<path d="M111.228 4.84045V39.6055H117.393V4.84045H111.228Z" fill="#484848"/>
<path d="M131.479 16.9387C125.036 16.9387 120.169 21.9912 120.169 28.4343C120.169 34.8774 125.036 39.9763 131.479 39.9763C137.922 39.9763 142.789 34.8774 142.789 28.4343C142.789 21.9912 137.922 16.9387 131.479 16.9387ZM131.479 34.3212C128.142 34.3212 126.195 31.7717 126.195 28.4343C126.195 25.0969 128.142 22.5474 131.479 22.5474C134.817 22.5474 136.763 25.0969 136.763 28.4343C136.763 31.7717 134.817 34.3212 131.479 34.3212Z" fill="#484848"/>
<path d="M155.407 25.9312C151.884 24.8651 151.235 24.3089 151.189 23.4745C151.142 22.8719 151.745 21.7131 154.109 21.8985C155.824 22.0375 156.566 23.1037 156.797 23.8453L161.525 22.5011C161.201 20.4615 158.652 16.985 153.275 16.985C147.48 16.985 144.977 20.2298 144.838 23.3354C144.699 26.9974 146.831 28.6661 151.699 30.3811C154.804 31.4473 155.87 31.5863 155.917 32.8379C155.963 34.0431 154.109 34.4602 152.44 34.3675C150.864 34.2748 148.917 33.3478 148.454 32.1889L143.958 34.5993C144.699 37.3342 148.825 39.9299 153.506 39.9299C158.652 39.9299 162.267 37.1951 162.406 33.1623C162.545 29.7786 160.645 27.5536 155.407 25.9312Z" fill="#484848"/>
<path d="M169.794 33.4549C168.024 33.4549 166.533 34.8989 166.533 36.7156C166.533 38.5323 168.024 39.9763 169.794 39.9763C171.61 39.9763 173.101 38.5323 173.101 36.7156C173.101 34.8989 171.61 33.4549 169.794 33.4549Z" fill="#484848"/>
<path d="M122.617 8.38701C122.029 8.38701 121.577 8.62557 121.262 9.00898V6.58926H120.649V12.5533H121.262V11.9995C121.577 12.3829 122.029 12.613 122.617 12.613C123.793 12.613 124.542 11.6758 124.542 10.5085C124.542 9.33274 123.793 8.38701 122.617 8.38701ZM122.617 12.0166C121.773 12.0166 121.288 11.352 121.288 10.5085C121.288 9.66503 121.773 8.98342 122.617 8.98342C123.46 8.98342 123.92 9.66503 123.92 10.5085C123.92 11.352 123.46 12.0166 122.617 12.0166ZM125.821 6.16326V12.5533H126.435V6.16326H125.821ZM129.688 8.38701C128.521 8.38701 127.712 9.33274 127.712 10.5085C127.712 11.6843 128.521 12.6215 129.688 12.6215C130.864 12.6215 131.691 11.6843 131.691 10.5085C131.691 9.33274 130.864 8.38701 129.688 8.38701ZM129.688 12.0166C128.845 12.0166 128.334 11.352 128.334 10.5085C128.334 9.66503 128.845 8.98342 129.688 8.98342C130.532 8.98342 131.069 9.66503 131.069 10.5085C131.069 11.352 130.532 12.0166 129.688 12.0166ZM134.818 12.0166C133.975 12.0166 133.464 11.352 133.464 10.5085C133.464 9.66503 133.975 8.98342 134.81 8.98342C135.321 8.98342 135.722 9.2305 135.969 9.60538L136.505 9.34978C136.165 8.77041 135.56 8.38701 134.81 8.38701C133.643 8.38701 132.842 9.33274 132.842 10.5085C132.842 11.6758 133.643 12.613 134.818 12.613C135.56 12.613 136.165 12.2466 136.505 11.6673L135.969 11.4031C135.722 11.7865 135.321 12.0166 134.818 12.0166ZM140.462 12.5533H141.22L139.439 10.0996L140.964 8.44665H140.129L138.4 10.3211V6.58926H137.786V12.5533H138.4V11.2242L139.013 10.5596L140.462 12.5533ZM144.007 12.0166C143.164 12.0166 142.652 11.352 142.652 10.5085C142.652 9.66503 143.164 8.98342 143.999 8.98342C144.51 8.98342 144.91 9.2305 145.157 9.60538L145.694 9.34978C145.353 8.77041 144.748 8.38701 143.999 8.38701C142.831 8.38701 142.031 9.33274 142.031 10.5085C142.031 11.6758 142.831 12.613 144.007 12.613C144.748 12.613 145.353 12.2466 145.694 11.6673L145.157 11.4031C144.91 11.7865 144.51 12.0166 144.007 12.0166ZM148.698 8.38701C148.196 8.38701 147.795 8.59149 147.514 8.92378V6.58926H146.892V12.5533H147.514V10.3381C147.514 9.42646 147.974 9.00046 148.605 9.00046C149.269 9.00046 149.644 9.39238 149.644 10.287C149.644 10.9004 149.644 12.5533 149.644 12.5533H150.257C150.257 12.5533 150.257 11.6502 150.257 10.287C150.257 8.77893 149.516 8.38701 148.698 8.38701ZM154.901 12.5533C154.901 12.5533 154.892 10.6363 154.892 9.80135C154.892 8.9323 154.339 8.38701 153.384 8.38701C152.379 8.38701 151.902 8.96638 151.791 9.52018L152.336 9.64799C152.439 9.29866 152.643 8.94082 153.367 8.94082C154.151 8.94082 154.296 9.39238 154.304 9.67355C154.313 9.94619 154.066 10.0655 153.427 10.1677C152.166 10.3722 151.535 10.7386 151.535 11.548C151.535 12.2381 152.098 12.613 152.856 12.613C153.444 12.613 153.921 12.3744 154.287 12.0592V12.5533H154.901ZM152.907 12.0336C152.703 12.0336 152.183 11.9569 152.183 11.5054C152.183 11.0538 152.626 10.8749 153.512 10.73C153.819 10.6789 154.083 10.6448 154.304 10.6022V10.7897C154.313 11.5309 153.708 12.0336 152.907 12.0336ZM156.381 12.5533H157.003V8.44665H156.381V12.5533ZM156.688 7.6628C156.884 7.6628 157.037 7.50944 157.037 7.32199C157.037 7.12603 156.884 6.97267 156.688 6.97267C156.5 6.97267 156.347 7.12603 156.347 7.32199C156.347 7.50944 156.5 7.6628 156.688 7.6628ZM160.38 8.38701C159.878 8.38701 159.477 8.59149 159.188 8.92378V8.44665H158.574V12.5533H159.188V10.3381C159.188 9.43498 159.648 9.00046 160.278 9.00046C160.943 9.00046 161.326 9.39238 161.326 10.287C161.326 10.909 161.326 12.5533 161.326 12.5533H161.94C161.94 12.5533 161.94 11.6587 161.94 10.287C161.94 8.77893 161.19 8.38701 160.38 8.38701Z" fill="#7C45D6"/>
<defs>
<linearGradient id="paint0_linear_16_10261" x1="44.9707" y1="9.88943" x2="-6.57438" y2="-2.15997" gradientUnits="userSpaceOnUse">
<stop stop-color="#6DFFFF"/>
<stop offset="0.4926" stop-color="#AD00FF"/>
<stop offset="1" stop-color="#6E15FF"/>
</linearGradient>
<linearGradient id="paint1_linear_16_10261" x1="46.9487" y1="24.7582" x2="11.4643" y2="14.5131" gradientUnits="userSpaceOnUse">
<stop stop-color="#6E15FF"/>
<stop offset="0.4926" stop-color="#AD00FF"/>
<stop offset="1" stop-color="#6DFFFF"/>
</linearGradient>
</defs>
</svg>
