<svg width="2.4rem" height="2.4rem" viewBox="0 0 24 24" fill="#7C45D6" xmlns="http://www.w3.org/2000/svg">
    <path fill-rule="evenodd" clip-rule="evenodd" d="M14.896 2.41704C12.8393 1.79476 10.6368 1.85151 8.61493 2.57889C6.59301 3.30627 4.85916 4.66558 3.67023 6.45546C2.4813 8.24534 1.90052 10.3706 2.01395 12.5164C2.12737 14.6621 2.92895 16.7143 4.29995 18.3689C5.67095 20.0235 7.53843 21.1924 9.62577 21.7026C11.7131 22.2128 13.9093 22.037 15.8889 21.2014C16.3977 20.9866 16.6361 20.4 16.4213 19.8912C16.2065 19.3824 15.6199 19.144 15.1111 19.3588C13.5274 20.0273 11.7705 20.1679 10.1006 19.7598C8.43075 19.3516 6.93676 18.4165 5.83996 17.0928C4.74316 15.7692 4.10189 14.1274 4.01116 12.4108C3.92042 10.6942 4.38504 8.99398 5.33618 7.56207C6.28733 6.13017 7.67441 5.04272 9.29194 4.46082C10.9095 3.87892 12.6714 3.83351 14.3168 4.33134C15.9621 4.82916 17.4034 5.84373 18.427 7.22475C19.4506 8.60578 20.0022 10.2798 20 11.9988V13.5001C20 13.8979 19.842 14.2794 19.5607 14.5608C19.2794 14.8421 18.8978 15.0001 18.5 15.0001C18.1022 15.0001 17.7206 14.8421 17.4393 14.5608C17.158 14.2794 17 13.8979 17 13.5001V12.0045C17 12.003 17 12.0015 17 12.0001C17 9.23864 14.7614 7.00006 12 7.00006C9.23858 7.00006 7 9.23864 7 12.0001C7 14.7615 9.23858 17.0001 12 17.0001C13.4159 17.0001 14.6944 16.4115 15.6041 15.4657C15.7272 15.6471 15.8679 15.8177 16.0251 15.975C16.6815 16.6313 17.5717 17.0001 18.5 17.0001C19.4283 17.0001 20.3185 16.6313 20.9749 15.975C21.6312 15.3186 22 14.4283 22 13.5001V12.0014V12.0001H21L22 12.0014C22.0028 9.8526 21.3133 7.76009 20.0338 6.03381C18.7542 4.30754 16.9527 3.03932 14.896 2.41704ZM15 11.9984C15 11.9989 15 11.9995 15 12.0001V12.0035C14.9982 13.6588 13.6557 15.0001 12 15.0001C10.3431 15.0001 9 13.6569 9 12.0001C9 10.3432 10.3431 9.00006 12 9.00006C13.6563 9.00006 14.9991 10.3423 15 11.9984Z"/>
</svg>