<svg width="1.6rem" height="1.7rem" viewBox="0 0 16 17" fill="var(--font-primary)" xmlns="http://www.w3.org/2000/svg">
    <path fill-rule="evenodd" clip-rule="evenodd" d="M8.00016 2.66866C5.05464 2.66866 2.66683 5.05648 2.66683 8.00199C2.66683 10.9475 5.05464 13.3353 8.00016 13.3353C10.9457 13.3353 13.3335 10.9475 13.3335 8.00199C13.3335 5.05648 10.9457 2.66866 8.00016 2.66866ZM1.3335 8.00199C1.3335 4.3201 4.31826 1.33533 8.00016 1.33533C11.6821 1.33533 14.6668 4.3201 14.6668 8.00199C14.6668 11.6839 11.6821 14.6687 8.00016 14.6687C4.31826 14.6687 1.3335 11.6839 1.3335 8.00199ZM7.3335 5.33533C7.3335 4.96714 7.63197 4.66866 8.00016 4.66866H8.00683C8.37502 4.66866 8.6735 4.96714 8.6735 5.33533C8.6735 5.70352 8.37502 6.00199 8.00683 6.00199H8.00016C7.63197 6.00199 7.3335 5.70352 7.3335 5.33533ZM7.3335 7.33533C6.96531 7.33533 6.66683 7.6338 6.66683 8.00199C6.66683 8.37018 6.96531 8.66866 7.3335 8.66866V10.6687C7.3335 11.0368 7.63197 11.3353 8.00016 11.3353H8.66683C9.03502 11.3353 9.3335 11.0368 9.3335 10.6687C9.3335 10.3005 9.03502 10.002 8.66683 10.002V8.00199C8.66683 7.6338 8.36835 7.33533 8.00016 7.33533H7.3335Z" />
</svg>