<svg width="24" height="24" viewBox="0 0 24 24" fill="var(--brand)" xmlns="http://www.w3.org/2000/svg">
    <path fill-rule="evenodd" clip-rule="evenodd" d="M4 12C4 7.58172 7.58172 4 12 4C12.5523 4 13 3.55228 13 3C13 2.44772 12.5523 2 12 2C6.47715 2 2 6.47715 2 12C2 17.5228 6.47715 22 12 22C17.5228 22 22 17.5228 22 12C22 11.4477 21.5523 11 21 11C20.4477 11 20 11.4477 20 12C20 16.4183 16.4183 20 12 20C7.58172 20 4 16.4183 4 12ZM8 12C8 9.79086 9.79086 8 12 8C12.5523 8 13 7.55228 13 7C13 6.44772 12.5523 6 12 6C8.68629 6 6 8.68629 6 12C6 15.3137 8.68629 18 12 18C15.3137 18 18 15.3137 18 12C18 11.4477 17.5523 11 17 11C16.4477 11 16 11.4477 16 12C16 14.2091 14.2091 16 12 16C9.79086 16 8 14.2091 8 12ZM14 6C14 5.44772 14.4477 5 15 5H17V3C17 2.44772 17.4477 2 18 2C18.5523 2 19 2.44772 19 3V5H21C21.5523 5 22 5.44772 22 6C22 6.55228 21.5523 7 21 7H19V9C19 9.55228 18.5523 10 18 10C17.4477 10 17 9.55228 17 9V7H15C14.4477 7 14 6.55228 14 6Z" />
</svg>