<svg width="2.4rem" height="2.5rem" viewBox="0 0 24 25" fill="none" xmlns="http://www.w3.org/2000/svg">
<path fill-rule="evenodd" clip-rule="evenodd" d="M7 4.5C6.73478 4.5 6.48043 4.60536 6.29289 4.79289C6.10536 4.98043 6 5.23478 6 5.5V19.6315L7.4453 18.6679C7.84192 18.4035 8.37004 18.4558 8.70711 18.7929L10 20.0858L11.2929 18.7929C11.6834 18.4024 12.3166 18.4024 12.7071 18.7929L14 20.0858L15.2929 18.7929C15.63 18.4558 16.1581 18.4035 16.5547 18.6679L18 19.6315V5.5C18 5.23478 17.8946 4.98043 17.7071 4.79289C17.5196 4.60536 17.2652 4.5 17 4.5H7ZM4.87868 3.37868C5.44129 2.81607 6.20435 2.5 7 2.5H17C17.7956 2.5 18.5587 2.81607 19.1213 3.37868C19.6839 3.94129 20 4.70435 20 5.5V21.5C20 21.8688 19.797 22.2077 19.4719 22.3817C19.1467 22.5557 18.7522 22.5366 18.4453 22.3321L16.1274 20.7868L14.7071 22.2071C14.3166 22.5976 13.6834 22.5976 13.2929 22.2071L12 20.9142L10.7071 22.2071C10.3166 22.5976 9.68342 22.5976 9.29289 22.2071L7.87258 20.7868L5.5547 22.3321C5.24784 22.5366 4.8533 22.5557 4.52814 22.3817C4.20298 22.2077 4 21.8688 4 21.5V5.5C4 4.70435 4.31607 3.94129 4.87868 3.37868ZM8 7.5C8 6.94772 8.44772 6.5 9 6.5H15C15.5523 6.5 16 6.94772 16 7.5C16 8.05228 15.5523 8.5 15 8.5H9C8.44772 8.5 8 8.05228 8 7.5ZM8 11.5C8 10.9477 8.44772 10.5 9 10.5H15C15.5523 10.5 16 10.9477 16 11.5C16 12.0523 15.5523 12.5 15 12.5H9C8.44772 12.5 8 12.0523 8 11.5ZM12 15.5C12 14.9477 12.4477 14.5 13 14.5H15C15.5523 14.5 16 14.9477 16 15.5C16 16.0523 15.5523 16.5 15 16.5H13C12.4477 16.5 12 16.0523 12 15.5Z" />
</svg>
