<svg width="2.4rem" height="2.4rem" viewBox="0 0 24 24" fill="none" xmlns="http://www.w3.org/2000/svg">
    <path fill-rule="evenodd" clip-rule="evenodd" d="M12.3931 5C11.8408 5 11.3931 5.44772 11.3931 6C11.3931 6.55228 11.8408 7 12.3931 7H21.3931C21.9454 7 22.3931 6.55228 22.3931 6C22.3931 5.44772 21.9454 5 21.3931 5H12.3931ZM12.3931 11C11.8408 11 11.3931 11.4477 11.3931 12C11.3931 12.5523 11.8408 13 12.3931 13H21.3931C21.9454 13 22.3931 12.5523 22.3931 12C22.3931 11.4477 21.9454 11 21.3931 11H12.3931ZM12.3931 17C11.8408 17 11.3931 17.4477 11.3931 18C11.3931 18.5523 11.8408 19 12.3931 19H21.3931C21.9454 19 22.3931 18.5523 22.3931 18C22.3931 17.4477 21.9454 17 21.3931 17H12.3931Z" fill="var(--font-primary)"/>
    <path fill-rule="evenodd" clip-rule="evenodd" d="M2.54492 3C1.99264 3 1.54492 3.44772 1.54492 4V20C1.54492 20.5523 1.99264 21 2.54492 21H8.54492C9.09721 21 9.54492 20.5523 9.54492 20V4C9.54492 3.44772 9.09721 3 8.54492 3H2.54492ZM3.54492 5V19H7.54492V5H3.54492Z" fill="#DE5E57"/>
</svg>
