<svg width="2.4rem" height="2.4rem" viewBox="0 0 24 24" fill="none" xmlns="http://www.w3.org/2000/svg">
    <path fill-rule="evenodd" clip-rule="evenodd" d="M11.3931 6C11.3931 5.44772 11.8408 5 12.3931 5H21.3931C21.9454 5 22.3931 5.44772 22.3931 6C22.3931 6.55228 21.9454 7 21.3931 7H12.3931C11.8408 7 11.3931 6.55228 11.3931 6ZM11.3931 12C11.3931 11.4477 11.8408 11 12.3931 11H21.3931C21.9454 11 22.3931 11.4477 22.3931 12C22.3931 12.5523 21.9454 13 21.3931 13H12.3931C11.8408 13 11.3931 12.5523 11.3931 12ZM12.3931 17C11.8408 17 11.3931 17.4477 11.3931 18C11.3931 18.5523 11.8408 19 12.3931 19H21.3931C21.9454 19 22.3931 18.5523 22.3931 18C22.3931 17.4477 21.9454 17 21.3931 17H12.3931Z" fill="var(--font-primary)"/>
    <path fill-rule="evenodd" clip-rule="evenodd" d="M1.54492 4C1.54492 3.44772 1.99264 3 2.54492 3H8.54492C9.09721 3 9.54492 3.44772 9.54492 4V10C9.54492 10.5523 9.09721 11 8.54492 11H2.54492C1.99264 11 1.54492 10.5523 1.54492 10V4ZM3.54492 9V5H7.54492V9H3.54492Z" fill="#50A39A"/>
    <path fill-rule="evenodd" clip-rule="evenodd" d="M1.54492 14C1.54492 13.4477 1.99264 13 2.54492 13H8.54492C9.09721 13 9.54492 13.4477 9.54492 14V20C9.54492 20.5523 9.09721 21 8.54492 21H2.54492C1.99264 21 1.54492 20.5523 1.54492 20V14ZM3.54492 19V15H7.54492V19H3.54492Z" fill="#DE5E57"/>
</svg>