<svg width="2.4rem" height="2.4rem" viewBox="0 0 24 24" fill="none" xmlns="http://www.w3.org/2000/svg">
    <path fill-rule="evenodd" clip-rule="evenodd" d="M12.3932 5C11.8409 5 11.3932 5.44772 11.3932 6C11.3932 6.55228 11.8409 7 12.3932 7H21.3932C21.9455 7 22.3932 6.55228 22.3932 6C22.3932 5.44772 21.9455 5 21.3932 5H12.3932ZM12.3932 11C11.8409 11 11.3932 11.4477 11.3932 12C11.3932 12.5523 11.8409 13 12.3932 13H21.3932C21.9455 13 22.3932 12.5523 22.3932 12C22.3932 11.4477 21.9455 11 21.3932 11H12.3932ZM12.3932 17C11.8409 17 11.3932 17.4477 11.3932 18C11.3932 18.5523 11.8409 19 12.3932 19H21.3932C21.9455 19 22.3932 18.5523 22.3932 18C22.3932 17.4477 21.9455 17 21.3932 17H12.3932Z" fill="var(--font-primary)"/>
    <path fill-rule="evenodd" clip-rule="evenodd" d="M2.54492 3C1.99264 3 1.54492 3.44772 1.54492 4V20C1.54492 20.5523 1.99264 21 2.54492 21H8.54492C9.09721 21 9.54492 20.5523 9.54492 20V4C9.54492 3.44772 9.09721 3 8.54492 3H2.54492ZM3.54492 5V19H7.54492V5H3.54492Z" fill="#50A39A"/>
</svg>
