<svg width="2.4rem" height="2.5rem" viewBox="0 0 24 25" fill="var(--brand)" xmlns="http://www.w3.org/2000/svg">
    <path fill-rule="evenodd" clip-rule="evenodd" d="M2.29289 2.29491C2.68342 1.90438 3.31658 1.90438 3.70711 2.29491L17.9832 16.571C18.0385 16.6154 18.0897 16.6663 18.1356 16.7234L21.7071 20.2949C22.0976 20.6854 22.0976 21.3186 21.7071 21.7091C21.3166 22.0996 20.6834 22.0996 20.2929 21.7091L17.206 18.6223C15.6047 19.5387 13.8653 20.002 12 20.002C7.51999 20.002 3.9072 17.3549 1.13177 12.4982C0.956057 12.1907 0.956079 11.8132 1.13182 11.5058C2.30972 9.44509 3.63695 7.77914 5.12709 6.54332L2.29289 3.70912C1.90237 3.3186 1.90237 2.68543 2.29289 2.29491ZM6.54861 7.96484C5.34564 8.92794 4.2122 10.2633 3.15993 12.0021C5.65785 16.1326 8.61281 18.002 12 18.002C13.3253 18.002 14.5638 17.7178 15.7281 17.1443L13.2939 14.7101C12.8928 14.9022 12.4501 15.0046 11.9969 15.0044C11.2011 15.0041 10.4381 14.6877 9.87561 14.1248C9.31312 13.562 8.99728 12.7987 8.99756 12.0029C8.99772 11.5505 9.10008 11.1085 9.29185 10.7081L6.54861 7.96484ZM11.2359 12.6522L11.3498 12.766C11.3293 12.7486 11.3095 12.7303 11.2903 12.7111C11.2713 12.6921 11.2532 12.6725 11.2359 12.6522ZM9.63803 6.32845C10.4049 6.10908 11.1989 5.99918 11.9965 6.00201L12 6.00201C15.3872 6.00201 18.3422 7.87146 20.8401 12.0019C20.1793 13.0941 19.486 14.0286 18.7626 14.8113C18.3878 15.2168 18.4127 15.8495 18.8182 16.2244C19.2238 16.5992 19.8565 16.5743 20.2314 16.1688C21.1827 15.1395 22.0598 13.9124 22.8682 12.4983C23.0439 12.1908 23.0439 11.8133 22.8682 11.5059C20.0932 6.64975 16.481 4.00271 12.0018 4.00201C11.0164 3.99869 10.0354 4.13455 9.08797 4.40558C8.55698 4.55747 8.24967 5.11106 8.40157 5.64205C8.55346 6.17303 9.10705 6.48034 9.63803 6.32845Z" />
</svg>
