<svg width="22" height="21" viewBox="0 0 22 21" fill="#7C45D6" xmlns="http://www.w3.org/2000/svg">
    <path fill-rule="evenodd" clip-rule="evenodd" d="M1.29289 0.294907C1.68342 -0.0956169 2.31658 -0.0956169 2.70711 0.294907L16.9832 14.571C17.0385 14.6154 17.0897 14.6663 17.1356 14.7234L20.7071 18.2949C21.0976 18.6854 21.0976 19.3186 20.7071 19.7091C20.3166 20.0996 19.6834 20.0996 19.2929 19.7091L16.206 16.6223C14.6047 17.5387 12.8653 18.002 11 18.002C6.51999 18.002 2.9072 15.3549 0.131768 10.4982C-0.0439426 10.1907 -0.0439215 9.81322 0.131824 9.50576C1.30972 7.44509 2.63695 5.77914 4.12709 4.54332L1.29289 1.70912C0.902369 1.3186 0.902369 0.685432 1.29289 0.294907ZM5.54861 5.96484C4.34564 6.92794 3.2122 8.26326 2.15993 10.0021C4.65785 14.1326 7.61281 16.002 11 16.002C12.3253 16.002 13.5638 15.7178 14.7281 15.1443L12.2939 12.7101C11.8928 12.9022 11.4501 13.0046 10.9969 13.0044C10.2011 13.0041 9.43809 12.6877 8.87561 12.1248C8.31312 11.562 7.99728 10.7987 7.99756 10.0029C7.99772 9.55045 8.10008 9.10855 8.29185 8.70808L5.54861 5.96484ZM10.2359 10.6522L10.3498 10.766C10.3293 10.7486 10.3095 10.7303 10.2903 10.7111C10.2713 10.6921 10.2532 10.6725 10.2359 10.6522ZM8.63803 4.32845C9.40487 4.10908 10.1989 3.99918 10.9965 4.00201L11 4.00201C14.3872 4.00201 17.3422 5.87146 19.8401 10.0019C19.1793 11.0941 18.486 12.0286 17.7626 12.8113C17.3878 13.2168 17.4127 13.8495 17.8182 14.2244C18.2238 14.5992 18.8565 14.5743 19.2314 14.1688C20.1827 13.1395 21.0598 11.9124 21.8682 10.4983C22.0439 10.1908 22.0439 9.81334 21.8682 9.50585C19.0932 4.64975 15.481 2.00271 11.0018 2.00201C10.0164 1.99869 9.0354 2.13455 8.08797 2.40558C7.55698 2.55747 7.24967 3.11106 7.40157 3.64205C7.55346 4.17303 8.10705 4.48034 8.63803 4.32845Z"/>
</svg>