<svg width="22" height="16" viewBox="0 0 22 16" fill="#7C45D6" xmlns="http://www.w3.org/2000/svg">
    <path fill-rule="evenodd" clip-rule="evenodd" d="M11 14C7.61278 14 4.65779 12.1305 2.15986 8C4.65779 3.86948 7.61278 2 11 2C14.3872 2 17.3422 3.86948 19.8401 8C17.3422 12.1305 14.3872 14 11 14ZM11 0C6.51999 0 2.9072 2.64709 0.131768 7.50384C-0.0439228 7.81128 -0.0439228 8.18872 0.131768 8.49616C2.9072 13.3529 6.51999 16 11 16C15.48 16 19.0928 13.3529 21.8682 8.49616C22.0439 8.18872 22.0439 7.81128 21.8682 7.50384C19.0928 2.64709 15.48 0 11 0ZM10 8C10 7.44772 10.4477 7 11 7C11.5523 7 12 7.44772 12 8C12 8.55228 11.5523 9 11 9C10.4477 9 10 8.55228 10 8ZM11 5C9.34315 5 8 6.34315 8 8C8 9.65685 9.34315 11 11 11C12.6569 11 14 9.65685 14 8C14 6.34315 12.6569 5 11 5Z" />
</svg>