<svg width="2.4rem" height="2.4rem" viewBox="0 0 24 24" fill="none" xmlns="http://www.w3.org/2000/svg">
<path fill-rule="evenodd" clip-rule="evenodd" d="M7 10.8621C7 8.72969 8.72868 7.00101 10.8611 7.00101C12.9935 7.00101 14.7222 8.72969 14.7222 10.8621C14.7222 12.9946 12.9935 14.7232 10.8611 14.7232C8.72868 14.7232 7 12.9946 7 10.8621ZM10.8611 5.00101C7.62411 5.00101 5 7.62512 5 10.8621C5 14.0991 7.62411 16.7232 10.8611 16.7232C12.1185 16.7232 13.2835 16.3273 14.238 15.6532L17.7929 19.2081C18.1834 19.5986 18.8166 19.5986 19.2071 19.2081C19.5976 18.8176 19.5976 18.1844 19.2071 17.7939L15.6522 14.239C16.3263 13.2845 16.7222 12.1195 16.7222 10.8621C16.7222 7.62512 14.0981 5.00101 10.8611 5.00101Z" fill="#B3ADBD"/>
</svg>
