<svg width="2.4rem" height="2.5rem" viewBox="0 0 24 25" fill="none" xmlns="http://www.w3.org/2000/svg">
<path fill-rule="evenodd" clip-rule="evenodd" d="M14.6467 4.58124C13.9735 1.80643 10.0268 1.80625 9.35318 4.58071C9.23686 5.05757 8.69431 5.28399 8.27246 5.02759C5.83343 3.5433 3.04359 6.33421 4.52886 8.77226C4.5882 8.86959 4.62391 8.97987 4.63272 9.09352C4.64154 9.20716 4.62339 9.32129 4.57976 9.42659C4.53613 9.5319 4.46825 9.62542 4.38165 9.69954C4.29504 9.77366 4.19216 9.82628 4.08138 9.85312C1.30657 10.5263 1.30611 14.4731 4.08057 15.1467C4.18627 15.1724 4.28476 15.2216 4.36876 15.2905L4.38053 15.3004C4.46703 15.3745 4.53483 15.4679 4.57841 15.5732C4.62199 15.6784 4.64012 15.7925 4.63133 15.9061C4.62254 16.0196 4.58707 16.1295 4.52782 16.2268C3.04284 18.666 5.8339 21.4564 8.27213 19.971C8.36945 19.9117 8.47973 19.8759 8.59338 19.8671C8.70702 19.8583 8.82115 19.8765 8.92646 19.9201C9.03177 19.9637 9.12528 20.0316 9.1994 20.1182C9.27352 20.2048 9.32614 20.3077 9.35298 20.4185C10.0261 23.1933 13.973 23.1937 14.6465 20.4193C14.6723 20.3138 14.7215 20.215 14.7903 20.1312L14.8002 20.1193C14.8743 20.0328 14.9678 19.965 15.0731 19.9215C15.1783 19.8779 15.2923 19.8597 15.4059 19.8685C15.5195 19.8773 15.6296 19.9129 15.7268 19.9722C18.166 21.4571 20.956 18.6656 19.4707 16.2274C19.4113 16.1301 19.3758 16.0201 19.367 15.9065C19.3582 15.7928 19.3763 15.6787 19.42 15.5734C19.4636 15.4681 19.5315 15.3746 19.6181 15.3005C19.7047 15.2263 19.8078 15.1737 19.9186 15.1468C22.6934 14.4737 22.6931 10.5268 19.9186 9.85319C19.8133 9.82749 19.7151 9.77848 19.6314 9.70985L19.6192 9.69964C19.5327 9.62553 19.4649 9.53205 19.4213 9.42681C19.3777 9.32156 19.3596 9.20752 19.3684 9.09395C19.3772 8.98038 19.4128 8.8703 19.472 8.77302C20.957 6.33386 18.1655 3.54382 15.7273 5.02919C15.63 5.08853 15.52 5.12405 15.4063 5.13286C15.2927 5.14167 15.1786 5.12352 15.0733 5.0799C14.968 5.03627 14.8744 4.96839 14.8003 4.88178C14.7262 4.79518 14.6735 4.69202 14.6467 4.58124ZM11.2967 5.05276C11.4754 4.31584 12.524 4.31575 12.703 5.05248C12.804 5.46919 13.002 5.85645 13.2808 6.18222C13.5401 6.48513 13.8624 6.72716 14.2248 6.8916C14.2522 6.90405 14.2799 6.91605 14.3078 6.9276C14.704 7.09175 15.1334 7.16003 15.5609 7.12688C15.9885 7.09372 16.4023 6.96008 16.7684 6.73681C17.4161 6.34266 18.1585 7.08411 17.7638 7.7328C17.5994 8.0028 17.4836 8.29862 17.4209 8.60676C17.3986 8.71635 17.383 8.8275 17.3744 8.9396C17.3413 9.3669 17.4095 9.79598 17.5735 10.192C17.7374 10.5879 17.9925 10.9396 18.318 11.2185C18.529 11.3993 18.7658 11.5461 19.0198 11.6547C19.1574 11.7135 19.3002 11.7611 19.4466 11.7967C20.1835 11.9755 20.1841 13.0241 19.4474 13.2031C19.0307 13.3041 18.6434 13.5022 18.3176 13.781C17.9918 14.0598 17.7364 14.4117 17.5723 14.8079C17.4081 15.2041 17.3398 15.6335 17.373 16.0611C17.4061 16.4887 17.5398 16.9024 17.7631 17.2686C18.1572 17.9162 17.4158 18.6587 16.7671 18.264C16.5521 18.133 16.3207 18.0329 16.0798 17.9659C16.0181 17.9488 15.9559 17.9338 15.8931 17.921C15.7835 17.8988 15.6724 17.8832 15.5603 17.8745C15.133 17.8414 14.7039 17.9096 14.3079 18.0736C13.9119 18.2376 13.5602 18.4926 13.2814 18.8181C13.1661 18.9527 13.0646 19.0977 12.9781 19.2509C12.9288 19.3382 12.8844 19.4281 12.845 19.5203C12.7863 19.6579 12.7387 19.8004 12.7032 19.9467C12.5244 20.6836 11.4757 20.6843 11.2967 19.9475C11.1957 19.5308 10.9977 19.1436 10.7189 18.8178C10.44 18.4919 10.0882 18.2366 9.69196 18.0724C9.29575 17.9082 8.86637 17.84 8.43878 17.8731C8.0113 17.9063 7.59738 18.04 7.23128 18.2632C6.58364 18.6573 5.84131 17.9157 6.23602 17.267C6.4004 16.9971 6.51611 16.7014 6.57879 16.3933C6.60109 16.2837 6.61668 16.1725 6.62536 16.0604C6.65844 15.6331 6.59022 15.204 6.42626 14.808C6.2623 14.4121 6.00721 14.0604 5.68174 13.7815C5.48665 13.6144 5.26937 13.4762 5.03691 13.3705C4.88157 13.2999 4.71944 13.2438 4.55262 13.2032C4.32518 13.148 4.16795 13.01 4.08092 12.8402C3.97299 12.6297 3.97303 12.3704 4.08103 12.1598C4.16808 11.9901 4.32528 11.852 4.55262 11.7968C4.96933 11.6958 5.35631 11.4978 5.68208 11.219C6.00792 10.9402 6.26331 10.5883 6.42746 10.1921C6.59161 9.79588 6.65989 9.36651 6.62674 8.93891C6.5936 8.51144 6.45982 8.09752 6.23667 7.73142C6.11484 7.53124 6.10155 7.32203 6.16051 7.14015C6.23324 6.91574 6.41595 6.73295 6.64045 6.66007C6.82271 6.6009 7.0325 6.61419 7.23335 6.73646C7.45401 6.87063 7.68389 6.9694 7.91729 7.03515C9.1193 7.37379 10.4146 6.83671 11.0244 5.74789C11.0725 5.66202 11.1164 5.57272 11.1556 5.48016C11.213 5.34455 11.2604 5.20191 11.2967 5.05276ZM9.99988 12.5C9.99988 11.3954 10.8953 10.5 11.9999 10.5C13.1044 10.5 13.9999 11.3954 13.9999 12.5C13.9999 13.6046 13.1044 14.5 11.9999 14.5C10.8953 14.5 9.99988 13.6046 9.99988 12.5ZM11.9999 8.5C9.79074 8.5 7.99988 10.2909 7.99988 12.5C7.99988 14.7091 9.79074 16.5 11.9999 16.5C14.209 16.5 15.9999 14.7091 15.9999 12.5C15.9999 10.2909 14.209 8.5 11.9999 8.5Z" />
</svg>
