<svg width="1.6rem" height="1.7rem" viewBox="0 0 16 17" fill="var(--success)" xmlns="http://www.w3.org/2000/svg">
    <path fill-rule="evenodd" clip-rule="evenodd" d="M3.2 8.002C3.2 5.35103 5.34903 3.202 8 3.202C10.651 3.202 12.8 5.35103 12.8 8.002C12.8 10.653 10.651 12.802 8 12.802C5.34903 12.802 3.2 10.653 3.2 8.002ZM8 2.002C4.68629 2.002 2 4.68829 2 8.002C2 11.3157 4.68629 14.002 8 14.002C11.3137 14.002 14 11.3157 14 8.002C14 4.68829 11.3137 2.002 8 2.002ZM10.2243 7.22626C10.4586 6.99195 10.4586 6.61205 10.2243 6.37774C9.98995 6.14342 9.61005 6.14342 9.37574 6.37774L7.4 8.35347L6.62426 7.57774C6.38995 7.34342 6.01005 7.34342 5.77574 7.57774C5.54142 7.81205 5.54142 8.19195 5.77574 8.42626L6.97574 9.62626C7.21005 9.86058 7.58995 9.86058 7.82426 9.62626L10.2243 7.22626Z" />
</svg>