<svg width="2rem" height="2rem" viewBox="0 0 20 20" fill="none" xmlns="http://www.w3.org/2000/svg">
    <path fill-rule="evenodd" clip-rule="evenodd" d="M8.76368 2.21536C7.96781 2.40386 7.20196 2.71414 6.49417 3.13843C5.25203 3.88304 4.23532 4.95087 3.55249 6.22801C2.86965 7.50515 2.54631 8.9437 2.61695 10.3902C2.68758 11.8367 3.14955 13.2369 3.95357 14.4414C4.75759 15.646 5.87351 16.6096 7.18228 17.2297C8.49106 17.8497 9.9436 18.1029 11.385 17.9621C12.8263 17.8214 14.2025 17.292 15.3665 16.4305C15.9355 16.0094 16.4434 15.5167 16.8789 14.9668C15.7518 15.07 14.607 14.9479 13.5131 14.5979C11.6202 13.9922 9.99933 12.7424 8.93232 11.0656C7.86531 9.38883 7.41961 7.39118 7.67268 5.41989C7.81889 4.28096 8.19302 3.19245 8.76368 2.21536ZM10.7318 0.00799993H10.9983C11.4094 0.00799993 11.7786 0.259652 11.929 0.642325C12.0793 1.025 11.9801 1.4607 11.679 1.74056C10.5656 2.77511 9.84993 4.1671 9.6564 5.67456C9.46287 7.18202 9.80371 8.70963 10.6197 9.99186C11.4356 11.2741 12.6751 12.2299 14.1226 12.693C15.5701 13.1562 17.1342 13.0975 18.543 12.5271C18.9167 12.3758 19.3448 12.4637 19.6286 12.7501C19.9124 13.0366 19.9964 13.4654 19.8417 13.8378C19.1469 15.5094 18.0114 16.9611 16.5563 18.0381C15.1012 19.115 13.3811 19.7767 11.5794 19.9527C9.77764 20.1286 7.96197 19.8122 6.326 19.0371C4.69003 18.2621 3.29513 17.0574 2.29011 15.5518C1.28508 14.0461 0.707621 12.2959 0.619326 10.4877C0.531031 8.67962 0.935211 6.88144 1.78875 5.28502C2.6423 3.68859 3.91319 2.3538 5.46586 1.42304C7.01853 0.49227 8.79473 0.000436693 10.605 2.91019e-08C10.6475 -1.02229e-05 10.6901 0.00268826 10.7318 0.00799993Z" />
</svg>