<svg width="2rem" height="2rem" viewBox="0 0 20 20" fill="none" xmlns="http://www.w3.org/2000/svg">
    <path fill-rule="evenodd" clip-rule="evenodd" d="M11 1C11 0.447715 10.5523 0 10 0C9.44771 0 9 0.447715 9 1V2C9 2.55228 9.44771 3 10 3C10.5523 3 11 2.55228 11 2V1ZM4.30711 2.89289C3.91658 2.50237 3.28342 2.50237 2.89289 2.89289C2.50237 3.28342 2.50237 3.91658 2.89289 4.30711L3.59289 5.00711C3.98342 5.39763 4.61658 5.39763 5.00711 5.00711C5.39763 4.61658 5.39763 3.98342 5.00711 3.59289L4.30711 2.89289ZM17.1071 4.30711C17.4976 3.91658 17.4976 3.28342 17.1071 2.89289C16.7166 2.50237 16.0834 2.50237 15.6929 2.89289L14.9929 3.59289C14.6024 3.98342 14.6024 4.61658 14.9929 5.00711C15.3834 5.39763 16.0166 5.39763 16.4071 5.00711L17.1071 4.30711ZM1 9C0.447715 9 0 9.44771 0 10C0 10.5523 0.447715 11 1 11H2C2.55228 11 3 10.5523 3 10C3 9.44771 2.55228 9 2 9H1ZM18 9C17.4477 9 17 9.44771 17 10C17 10.5523 17.4477 11 18 11H19C19.5523 11 20 10.5523 20 10C20 9.44771 19.5523 9 19 9H18ZM5.00711 16.4071C5.39763 16.0166 5.39763 15.3834 5.00711 14.9929C4.61658 14.6024 3.98342 14.6024 3.59289 14.9929L2.89289 15.6929C2.50237 16.0834 2.50237 16.7166 2.89289 17.1071C3.28342 17.4976 3.91658 17.4976 4.30711 17.1071L5.00711 16.4071ZM16.4071 14.9929C16.0166 14.6024 15.3834 14.6024 14.9929 14.9929C14.6024 15.3834 14.6024 16.0166 14.9929 16.4071L15.6929 17.1071C16.0834 17.4976 16.7166 17.4976 17.1071 17.1071C17.4976 16.7166 17.4976 16.0834 17.1071 15.6929L16.4071 14.9929ZM11 18C11 17.4477 10.5523 17 10 17C9.44771 17 9 17.4477 9 18V19C9 19.5523 9.44771 20 10 20C10.5523 20 11 19.5523 11 19V18ZM7 10C7 8.34315 8.34315 7 10 7C11.6569 7 13 8.34315 13 10C13 11.6569 11.6569 13 10 13C8.34315 13 7 11.6569 7 10ZM10 5C7.23858 5 5 7.23858 5 10C5 12.7614 7.23858 15 10 15C12.7614 15 15 12.7614 15 10C15 7.23858 12.7614 5 10 5Z" />
</svg>