<svg width="2.4rem" height="2.5rem" viewBox="0 0 24 25" fill="none" xmlns="http://www.w3.org/2000/svg">
    <path fill-rule="evenodd" clip-rule="evenodd" d="M11.9122 4.41257C13.8777 4.39012 15.7826 5.09207 17.2636 6.38449C18.7446 7.67691 19.698 9.46933 19.9418 11.4198C20.1856 13.3702 19.7028 15.3422 18.5855 16.9594C17.4682 18.5766 15.7946 19.7258 13.8841 20.1879C11.9735 20.6499 9.95977 20.3924 8.22695 19.4645C6.93482 18.7726 5.86637 17.744 5.12686 16.5H8.04988C8.60217 16.5 9.04988 16.0523 9.04988 15.5C9.04988 14.9477 8.60217 14.5 8.04988 14.5H3.57304C3.55758 14.4996 3.54208 14.4996 3.52655 14.5H3.04988C2.4976 14.5 2.04988 14.9477 2.04988 15.5V20.5C2.04988 21.0523 2.4976 21.5 3.04988 21.5C3.60217 21.5 4.04988 21.0523 4.04988 20.5V18.4733C4.91101 19.6033 6.0101 20.5461 7.2828 21.2276C9.44882 22.3875 11.966 22.7094 14.3542 22.1318C16.7424 21.5543 18.8344 20.1177 20.231 18.0962C21.6276 16.0747 22.2311 13.6098 21.9263 11.1717C21.6216 8.73364 20.4299 6.49312 18.5787 4.8776C16.7274 3.26207 14.3462 2.38464 11.8893 2.4127C9.43247 2.44076 7.07192 3.37236 5.25807 5.02974C3.44421 6.68713 2.30402 8.95429 2.05503 11.3987C1.99906 11.9481 2.3991 12.4389 2.94854 12.4949C3.49799 12.5508 3.98877 12.1508 4.04473 11.6013C4.24393 9.64584 5.15608 7.83211 6.60716 6.5062C8.05825 5.1803 9.94668 4.43502 11.9122 4.41257ZM12.9998 8.5C12.9998 7.94772 12.5521 7.5 11.9998 7.5C11.4475 7.5 10.9998 7.94772 10.9998 8.5V12.5C10.9998 12.7652 11.1052 13.0196 11.2927 13.2071L13.2927 15.2071C13.6833 15.5976 14.3164 15.5976 14.7069 15.2071C15.0975 14.8166 15.0975 14.1834 14.7069 13.7929L12.9998 12.0858V8.5Z" />
</svg>
