<svg width="2.4rem" height="2.4rem" viewBox="0 0 24 24" fill="none" xmlns="http://www.w3.org/2000/svg">
<path fill-rule="evenodd" clip-rule="evenodd" d="M5 6C5 5.44772 5.44772 5 6 5H18C18.5523 5 19 5.44772 19 6V8C19 8.55228 18.5523 9 18 9H6C5.44772 9 5 8.55228 5 8V6ZM6 3C4.34315 3 3 4.34315 3 6V8C3 9.65685 4.34315 11 6 11H18C19.6569 11 21 9.65685 21 8V6C21 4.34315 19.6569 3 18 3H6ZM5 16C5 15.4477 5.44772 15 6 15H18C18.5523 15 19 15.4477 19 16V18C19 18.5523 18.5523 19 18 19H6C5.44772 19 5 18.5523 5 18V16ZM6 13C4.34315 13 3 14.3431 3 16V18C3 19.6569 4.34315 21 6 21H18C19.6569 21 21 19.6569 21 18V16C21 14.3431 19.6569 13 18 13H6Z" />
</svg>
