<svg width="2.4rem" height="2.5rem" viewBox="0 0 24 25" fill="none" xmlns="http://www.w3.org/2000/svg">
    <path fill-rule="evenodd" clip-rule="evenodd" d="M6 3.5C5.20435 3.5 4.44129 3.81607 3.87868 4.37868C3.31607 4.94129 3 5.70435 3 6.5V18.5C3 19.2956 3.31607 20.0587 3.87868 20.6213C4.44129 21.1839 5.20435 21.5 6 21.5H18C18.5304 21.5 19.0391 21.2893 19.4142 20.9142C19.7893 20.5391 20 20.0304 20 19.5V17.5C20.5523 17.5 21 17.0523 21 16.5V12.5C21 11.9477 20.5523 11.5 20 11.5V9.5C20 8.96957 19.7893 8.46086 19.4142 8.08579C19.0391 7.71071 18.5304 7.5 18 7.5V5.5C18 4.96957 17.7893 4.46086 17.4142 4.08579C17.0391 3.71071 16.5304 3.5 16 3.5H6ZM18 11.5V9.5H17H6C5.65606 9.5 5.3182 9.44094 5 9.32843V18.5C5 18.7652 5.10536 19.0196 5.29289 19.2071C5.48043 19.3946 5.73478 19.5 6 19.5H18V17.5H16C15.2043 17.5 14.4413 17.1839 13.8787 16.6213C13.3161 16.0587 13 15.2957 13 14.5C13 13.7043 13.3161 12.9413 13.8787 12.3787C14.4413 11.8161 15.2043 11.5 16 11.5H18ZM19 15.5H16C15.7348 15.5 15.4804 15.3946 15.2929 15.2071C15.1054 15.0196 15 14.7652 15 14.5C15 14.2348 15.1054 13.9804 15.2929 13.7929C15.4804 13.6054 15.7348 13.5 16 13.5H19V15.5ZM5.29289 7.20711C5.10536 7.01957 5 6.76522 5 6.5C5 6.23478 5.10536 5.98043 5.29289 5.79289C5.48043 5.60536 5.73478 5.5 6 5.5L16 5.5L16 7.5H6C5.73478 7.5 5.48043 7.39464 5.29289 7.20711Z" />
</svg>
