<svg width="1.6rem" height="1.7rem" viewBox="0 0 16 17" fill="var(--warning)" xmlns="http://www.w3.org/2000/svg">
    <path fill-rule="evenodd" clip-rule="evenodd" d="M7.98998 2.97028C7.66852 2.97028 7.35293 3.05014 7.07602 3.20155C6.80099 3.35194 6.57409 3.56745 6.41854 3.82595L2.16223 10.6368C2.14824 10.6592 2.13595 10.6824 2.12546 10.7064C2.01743 10.9531 1.97459 11.2201 2.00052 11.4853C2.02645 11.7504 2.12039 12.0059 2.27451 12.2306C2.42862 12.4552 2.63844 12.6423 2.88643 12.7764C3.13443 12.9105 3.41341 12.9876 3.70009 13.0013C3.72171 13.0023 3.74313 13.0023 3.76428 13.0012C3.7751 13.0018 3.78599 13.002 3.79696 13.002H12.195L12.1992 13.002C12.4928 13.0001 12.7815 12.9316 13.04 12.8025C13.2985 12.6733 13.519 12.4875 13.6822 12.2612C13.8455 12.0349 13.9466 11.7749 13.9767 11.504C14.0068 11.2332 13.9649 10.9596 13.8548 10.7071C13.8443 10.6829 13.8319 10.6594 13.8177 10.6368L9.56141 3.82594C9.40587 3.56744 9.17896 3.35193 8.90394 3.20155C8.62703 3.05014 8.31144 2.97028 7.98998 2.97028ZM3.79696 11.8894C3.78584 11.8894 3.77479 11.8896 3.76382 11.8902L3.76186 11.8901C3.6663 11.8855 3.5733 11.8598 3.49064 11.8151C3.40797 11.7704 3.33804 11.7081 3.28667 11.6332C3.23529 11.5583 3.20398 11.4731 3.19534 11.3848C3.18774 11.3071 3.19785 11.2289 3.22485 11.1553L7.45921 4.3796L7.4651 4.36996C7.51698 4.283 7.59302 4.21052 7.68532 4.16005C7.77763 4.10957 7.88283 4.08295 7.98998 4.08295C8.09713 4.08295 8.20233 4.10957 8.29463 4.16005C8.38694 4.21052 8.46298 4.283 8.51486 4.36996L8.52074 4.3796L12.7549 11.1549C12.7824 11.2304 12.7921 11.3106 12.7833 11.39C12.7733 11.4803 12.7396 11.567 12.6851 11.6424C12.6307 11.7179 12.5572 11.7798 12.471 11.8229C12.3854 11.8656 12.2898 11.8885 12.1925 11.8894H3.79696ZM8.59587 6.88231C8.59587 6.57505 8.3273 6.32597 7.99601 6.32597C7.66472 6.32597 7.39615 6.57505 7.39615 6.88231V7.99498C7.39615 8.30224 7.66472 8.55132 7.99601 8.55132C8.3273 8.55132 8.59587 8.30224 8.59587 7.99498V6.88231ZM8.59587 10.2203C8.59587 9.91308 8.3273 9.664 7.99601 9.664C7.66472 9.664 7.39615 9.91308 7.39615 10.2203V10.2259C7.39615 10.5332 7.66472 10.7822 7.99601 10.7822C8.3273 10.7822 8.59587 10.5332 8.59587 10.2259V10.2203Z" />
</svg>